<svg width="3356" height="515" viewBox="0 0 3356 515" fill="none" xmlns="http://www.w3.org/2000/svg">
<g clip-path="url(#clip0_146_109)">
<rect y="-38" width="3356" height="673" rx="12" fill="#000004"/>
<g style="mix-blend-mode:overlay">
<g style="mix-blend-mode:overlay">
<g style="mix-blend-mode:overlay">
<g style="mix-blend-mode:overlay">
<path d="M3356 835.093L2452.44 829.523L2341.88 744.075L2263.13 667.897L2214.19 599.504L2184.77 537.908L2175.27 481.989L2177.44 431.103L2193.11 384.325L2215.29 341.311" stroke="#00FF94" stroke-width="0.5" stroke-linecap="round" stroke-linejoin="round"/>
</g>
<g style="mix-blend-mode:overlay">
<path d="M3356 297.759L2818.28 334.063L2215.29 341.311" stroke="#00FF94" stroke-width="0.5" stroke-linecap="round" stroke-linejoin="round"/>
</g>
<g style="mix-blend-mode:overlay">
<path d="M3356 346.731L2820.95 380.605L2193.11 384.325L1657.43 355.656L1228.38 303.566L899.845 236.786L664.331 162.759L505.824 86.5806L433.653 106.754L360.815 129.96L288.665 157.253L216.3 188.911L145.289 226.291L75.0731 269.95L7.65133 321.653L0 328.88" stroke="#00FF94" stroke-width="0.5" stroke-linecap="round" stroke-linejoin="round"/>
</g>
<g style="mix-blend-mode:overlay">
<path d="M3356 251.97L2822.32 290.92L2246.58 301.308L1750.26 282.188L1347.75 240.937L1034.99 185.083L806.976 121.25L650.253 54.1907L554.053 -12.2018L505.609 -75.8844L495.357 -135.158L514.271 -189.528L555.472 -238.478L613.415 -282.267L683.524 -320.808L762.637 -354.638L847.769 -383.91L937.134 -409.094L1028.84 -430.494L1121.9 -448.517L1215.05 -463.443L1307.77 -475.637L1399.22 -485.38L1489.04 -492.951L1576.77 -498.629L1612.3 -487.746L1643.18 -476.734L1669.88 -465.615L1693.04 -454.431L1712.99 -443.248L1730.55 -432.086L1745.87 -420.923L1759.84 -409.804L1772.5 -398.706L1784.73 -387.63L1796.42 -376.597L1862.32 -379.027L1925.94 -380.597L1987.71 -381.458L2046.81 -381.845L2103.92 -381.866L2158.29 -381.716L2210.75 -381.436L2260.64 -381.243L2308.82 -381.049L2354.69 -381.071L2399.18 -381.2L2441.6 -381.63L2483.02 -382.189L2522.63 -383.114L2561.51 -384.168L2598.8 -385.609L2635.57 -387.179L2670.89 -389.179L2705.81 -391.308L2739.32 -393.91L2772.48 -396.663L2804.18 -399.932L2835.6 -403.374L2865.37 -407.417L2894.84 -411.675L2922.58 -416.579L2949.86 -421.741L2975.33 -427.612L3000.24 -433.785L3000.9 -433.978L3023.12 -440.71L3024.91 -441.291L3045.37 -447.979L3065.4 -456.044L3084.55 -464.497L3101.21 -473.766L3116.75 -483.509L3129.43 -494.112L3140.5 -505.253L3148.25 -517.34L3153.8 -530.051L3155.37 -543.794L3153.93 -558.246L3147.76 -573.818L3137.68 -590.206L3121.99 -607.734L3101.4 -626.144L3074.36 -645.694L3072.92 -646.576L3041.46 -666.105L3040.1 -666.814L3001.35 -687.526L2999.33 -688.494L2954.56 -709.7L2952.54 -710.56L2899.99 -732.712L2897.31 -733.723L2838.1 -756.263L2835.35 -757.209L2768.1 -780.329L2764.76 -781.383L2690.47 -804.654L2686.98 -805.643L2604.6 -829.107L2600.61 -830.161L2510.92 -853.475L2506.73 -854.464L2409.06 -877.606L2404.47 -878.595L2333.37 -893.93" stroke="#00FF94" stroke-width="0.5" stroke-linecap="round" stroke-linejoin="round"/>
</g>
<g style="mix-blend-mode:overlay">
<path d="M3356 209.515L2835.9 250.228L2280.93 264.186L1803.64 249.583L1410.53 213.494L1105.27 162.888L878.568 103.743L722.404 41.1143L623.818 -21.7295L554.053 -12.2018L483.042 -1.06117L411.494 12.3378L338.527 28.038L264.808 46.9212L189.542 69.1166L113.416 95.7209L35.8494 127.035L0 144.198" stroke="#00FF94" stroke-width="0.5" stroke-linecap="round" stroke-linejoin="round"/>
</g>
<g style="mix-blend-mode:overlay">
<path d="M3356 399.681L2837.8 430.329L2177.44 431.103L1620.68 397.509L1589.92 443.577L1571.29 494.7L1563.4 551.693L1573.61 615.763L1602.02 688.07L1658.14 770.335L1744.86 864.257L2608.47 925.595L3356 927.122" stroke="#00FF94" stroke-width="0.5" stroke-linecap="round" stroke-linejoin="round"/>
</g>
<g style="mix-blend-mode:overlay">
<path d="M3356 456.675L2866.57 484.312L2175.27 481.989L1589.92 443.577L1125.56 380.023L774.2 301.393L525.533 216.204L458.132 248.83L394.042 286.704L332.402 330.342L276.049 381.421L224.961 440.846L183.072 510.916L151.779 593.331L137.229 691.361L143.956 808.144L182.6 948.909L331.886 993.966" stroke="#00FF94" stroke-width="0.5" stroke-linecap="round" stroke-linejoin="round"/>
</g>
<g style="mix-blend-mode:overlay">
<path d="M3356 132.842L2875.82 176.351L2362.51 196.74L1915.51 190.825L1541.89 164.544L1246.73 123.702L1023.15 73.7406L865.134 19.2631L761.691 -36.5264L704.264 -90.9825L683.352 -142.75L691.648 -190.668L722.532 -234.414L770.74 -273.621L832.058 -308.463L902.94 -338.96L980.871 -365.456L1063.51 -388.103L1149.33 -407.288L1236.82 -423.289L1325.05 -436.387L1413.08 -446.882L1500.24 -455.077L1586.01 -461.228L1669.88 -465.615L1751.63 -468.454L1830.81 -470.003L1907.43 -470.476L1981.06 -470.11L2051.9 -469.056L2067.53 -457.141L2079.5 -445.549L2087.97 -434.344L2094.11 -423.397L2155.75 -422.149L2215.05 -420.665L2271.34 -419.138L2325.39 -417.568L2376.59 -416.192L2425.76 -414.944L2472.3 -414.02L2517.02 -413.31L2559.3 -413.052L2600.02 -413.073L2638.47 -413.611L2675.61 -414.493L2710.62 -415.934L2744.43 -417.74L2776.24 -420.149L2806.98 -422.945L2835.73 -426.408L2863.52 -430.236L2889.38 -434.752L2914.29 -439.678L2937.26 -445.269L2959.34 -451.291L2979.47 -458.023L2998.58 -465.164L3015.73 -473.035L3031.79 -481.315L3045.67 -490.327L3058.31 -499.79L3068.52 -510.006L3077.16 -520.716L3082.94 -532.223L3086.68 -544.31L3087.02 -557.236L3084.66 -570.807L3078.15 -585.302L3068.17 -600.508L3053.21 -616.703L3033.91 -633.693L3008.75 -651.652L2978.27 -670.406L2941.2 -690.107L2937.59 -691.806L2898 -710.517L2894.23 -712.087L2847.49 -731.723L2842.82 -733.486L2790.23 -753.467L2785.4 -755.123L2725.2 -775.77L2719.52 -777.555L2653 -798.352L2647.11 -800.03L2572.84 -821.193L2566.17 -822.935L2485.3 -844.012L2478.44 -845.625L2389.76 -866.702L2382.24 -868.336L2286.77 -889.048L2262.06 -893.93" stroke="#00FF94" stroke-width="0.5" stroke-linecap="round" stroke-linejoin="round"/>
</g>
<g style="mix-blend-mode:overlay">
<path d="M3356 98.2803L2899.84 142.757L2407.56 165.877L1972.66 164.178L1609.33 142.413L1317.31 106.216L1095.73 60.6644L935.673 10.015L829.93 -42.2903L768.548 -93.972L743.853 -143.266L748.023 -189.27L775.017 -231.295L819.571 -269.19L877.428 -302.828L945.302 -332.4L1020.31 -358.015L1100.43 -379.995L1183.8 -398.534L1269.15 -413.998L1355.29 -426.623L1441.39 -436.688L1526.76 -444.517L1610.75 -450.345L1693.04 -454.431L1773.08 -457.055L1850.86 -458.41L1925.85 -458.754L1998.24 -458.238L2067.53 -457.141L2134.09 -455.55L2144.39 -444.044L2151.59 -432.881L2212.11 -431.247L2270.18 -429.44L2325.22 -427.698L2377.97 -426.021L2427.81 -424.601L2475.56 -423.354L2520.59 -422.515L2563.77 -421.977L2604.43 -421.934L2643.44 -422.257L2680.13 -423.139L2715.31 -424.407L2748.32 -426.322L2779.98 -428.644L2809.55 -431.612L2837.95 -435.032L2864.3 -439.118L2889.55 -443.635L2912.83 -448.861L2935.01 -454.517L2955.27 -460.884L2974.44 -467.68L2991.66 -475.164L3007.76 -483.1L3021.75 -491.746L3034.54 -500.844L3045.03 -510.651L3054.03 -520.932L3060.39 -531.986L3064.84 -543.557L3066.15 -555.924L3065.01 -568.914L3060.05 -582.765L3051.88 -597.282L3039.14 -612.745L3022.33 -628.94L3000.09 -646.082L2972.9 -663.997L2939.41 -682.859L2900.15 -702.409L2896.23 -704.129L2853.85 -722.797L2848.99 -724.733L2801.11 -743.767L2796.01 -745.595L2740.8 -765.36L2734.76 -767.317L2673.51 -787.297L2667.25 -789.168L2598.39 -809.579L2591.21 -811.536L2516.03 -831.946L2508.64 -833.774L2425.72 -854.292L2417.58 -856.142L2328.1 -876.401L2319.76 -878.122L2243.08 -893.93" stroke="#00FF94" stroke-width="0.5" stroke-linecap="round" stroke-linejoin="round"/>
</g>
<g style="mix-blend-mode:overlay">
<path d="M3356 518.68L2916.18 542.553L2184.77 537.908L1571.29 494.7L1082.7 425.081" stroke="#00FF94" stroke-width="0.5" stroke-linecap="round" stroke-linejoin="round"/>
</g>
<g style="mix-blend-mode:overlay">
<path d="M3356 586.299L2985.56 606.214L2214.19 599.504L1563.4 551.694L1050.03 476.053L664.653 384.454" stroke="#00FF94" stroke-width="0.5" stroke-linecap="round" stroke-linejoin="round"/>
</g>
<g style="mix-blend-mode:overlay">
<path d="M2205.62 993.966L1875.52 972.223L1120.57 865.139L1059.64 763.345L1026.89 675.596L1018.7 599.827L1026.63 533.757L1050.03 476.053L1082.7 425.081" stroke="#00FF94" stroke-width="0.5" stroke-linecap="round" stroke-linejoin="round"/>
</g>
<g style="mix-blend-mode:overlay">
<path d="M3356 -63.6467L3076.15 -24.8049L2681.52 12.2304L2319.91 30.3824L2003.42 31.7159L1735.73 19.6073L1519.47 -2.71701L1351.44 -32.0098L1228.4 -65.5179L1144.43 -101.005L1094.42 -136.685L1036.77 -138.427L979.066 -140.019L920.865 -141.417L862.47 -142.47L803.387 -143.18L743.853 -143.266L683.352 -142.75L622.012 -141.287L559.34 -138.922L495.358 -135.158L429.548 -130.039L361.825 -122.985L291.738 -113.973L219.072 -102.338L143.398 -87.9498L64.5203 -69.9698L0 -52.9146" stroke="#00FF94" stroke-width="0.5" stroke-linecap="round" stroke-linejoin="round"/>
</g>
<g style="mix-blend-mode:overlay">
<path d="M3356 660.842L3085.37 675.51L2263.13 667.897L1573.61 615.763L1026.63 533.757L619.67 435.319L332.402 330.342L145.289 226.291L35.8494 127.035L0 60.2771" stroke="#00FF94" stroke-width="0.5" stroke-linecap="round" stroke-linejoin="round"/>
</g>
<g style="mix-blend-mode:overlay">
<path d="M3356 -103.65L3137.29 -70.2063L3136.24 -70.0988L2770.42 -29.988L2768.31 -29.859L2430.58 -6.95386L2128.65 0.487592L1869.3 -4.97524L1655.6 -20.6109L1485.92 -43.559L1358 -71.3248L1267.15 -101.736L1209.08 -133.05L1178.62 -163.977L1171.44 -193.571L1183.16 -221.143L1210.2 -246.328L1249.25 -268.889L1297.65 -288.762L1352.95 -305.946L1413.39 -320.592L1477.13 -332.808L1543.09 -342.852L1609.87 -350.896L1676.93 -357.219L1743.14 -362.037L1757.72 -350.982L1772.59 -339.97L1788.41 -328.959L1804.78 -317.947L1822.32 -306.935L1840.59 -295.967L1860.04 -284.955L1880.18 -273.965L1901.44 -262.953L1949.84 -266.072L1970.62 -254.867L1992.03 -243.704L2014.4 -232.478L2037.2 -221.315L2081.18 -223.058L2103.79 -211.616L2146.73 -212.885L2169.34 -201.163L2211.29 -202.11L2234.14 -190.001L2275.23 -190.732L2298.49 -178.194L2338.94 -178.753L2362.73 -165.72L2365.63 -165.741" stroke="#00FF94" stroke-width="0.5" stroke-linecap="round" stroke-linejoin="round"/>
</g>
<g style="mix-blend-mode:overlay">
<path d="M3356 817.758L3216.75 751.753L3085.37 675.51L2985.56 606.214L2916.18 542.553L2866.57 484.312L2837.8 430.329L2820.95 380.604L2818.28 334.063L2822.32 290.92L2835.9 250.228L2852.71 212.333" stroke="#00FF94" stroke-width="0.5" stroke-linecap="round" stroke-linejoin="round"/>
</g>
<g style="mix-blend-mode:overlay">
<path d="M2739.38 993.967L2608.47 925.595L2452.44 829.523L1658.14 770.335L1026.89 675.596L556.89 561.759L224.961 440.846L7.65133 321.654L0 314.943" stroke="#00FF94" stroke-width="0.5" stroke-linecap="round" stroke-linejoin="round"/>
</g>
<g style="mix-blend-mode:overlay">
<path d="M3356 743.881L3216.75 751.753L2341.88 744.075L1602.02 688.07L1018.7 599.827L582.079 493.753L276.049 381.422L75.0731 269.95L0 202.482" stroke="#00FF94" stroke-width="0.5" stroke-linecap="round" stroke-linejoin="round"/>
</g>
<g style="mix-blend-mode:overlay">
<path d="M3356 -399.18L3289.46 -368.64L3220.47 -339.691L3149.76 -312.506L3078.58 -287.343L3006.47 -263.878L2934.73 -242.371L2862.71 -222.391L2791.65 -204.174L2720.64 -187.27L2650.92 -171.871L2581.41 -157.525L2513.28 -144.406L2445.39 -132.126L2378.72 -120.77L2312.2 -110.038L2246.63 -99.9724L2181.05 -90.3157L2116.06 -81.1107L2050.89 -72.1637L1985.88 -63.4533L1920.61 -54.8719L1855.05 -46.3336L1789.14 -37.8383L1722.53 -29.2785L1655.6 -20.6111L1587.67 -11.7717L1519.47 -2.71714L1450.07 6.63841L1380.59 16.3381L1309.79 26.4895L1239.15 37.1786L1167.21 48.4913L1095.73 60.6644L1023.15 73.7407L951.277 88.086L793.608 29.479L722.404 41.1143L650.254 54.1907L578.469 69.3318L483.043 -1.06111L437.199 -67.8623L429.548 -130.039L451.427 -186.582L495.508 -237.618L556.052 -282.934L628.783 -323.001L709.938 -357.993L797.219 -388.426L888.218 -414.557L981.645 -436.903L1075.95 -455.722L1170.5 -471.422L1264.23 -484.326L1356.77 -494.757L1447.49 -502.973L1536.13 -509.253L1622.25 -513.856L1662.14 -502.65L1696.66 -491.295L1726.27 -479.874L1751.63 -468.454L1773.08 -457.055L1791.44 -445.7L1806.91 -434.43L1820.43 -423.225L1832.06 -412.105L1842.8 -401.029L1852.56 -390.018L1862.32 -379.027L1871.86 -368.08L1933.67 -369.758L1993.04 -370.855L2050.51 -371.435L2105.33 -371.78L2158.25 -371.93L2208.58 -372.081L2257.22 -372.188L2303.49 -372.468L2348.37 -372.833L2391.2 -373.457L2432.99 -374.188L2473.01 -375.242L2512.31 -376.404L2550.14 -377.909L2587.52 -379.501L2623.54 -381.458L2659.34 -383.522L2693.84 -385.953L2728.23 -388.469L2761.28 -391.437L2794.21 -394.534L2825.74 -398.126L2857.05 -401.868L2886.84 -406.191L2916.37 -410.729L2944.16 -415.912L2971.61 -421.332L2997.12 -427.505L2998.75 -427.913L3022.18 -433.935L3045.09 -441.162L3046.38 -441.613L3067.36 -448.732L3087.28 -457.141L3106.28 -465.938L3122.66 -475.616L3137.7 -485.767L3149.76 -496.865L3159.99 -508.5L3166.61 -521.19L3170.76 -534.503L3170.56 -548.934L3167.08 -564.139L3158.46 -580.506L3145.57 -597.755L3126.68 -616.165L3102.5 -635.5L3101.81 -635.93L3071.48 -655.953L3070.22 -656.685L3034.28 -677.267L3033.1 -677.869L2989.53 -699.591L2987.73 -700.387L2937.8 -722.625L2936.02 -723.335L2878.07 -746.391L2875.69 -747.251L2810.82 -770.629L2808.33 -771.447L2735.3 -795.255L2732.31 -796.158L2651.99 -820.031L2648.79 -820.913L2560.41 -844.85L2556.8 -845.732L2460.9 -869.412L2457.06 -870.293L2449.36 -872.014L2353.21 -893.607L2351.7 -893.93" stroke="#00FF94" stroke-width="0.5" stroke-linecap="round" stroke-linejoin="round"/>
</g>
<g style="mix-blend-mode:overlay">
<path d="M1293.61 993.966L1222.32 984.374L1120.57 865.139L554.333 733.709L151.78 593.331L0 514.637" stroke="#00FF94" stroke-width="0.5" stroke-linecap="round" stroke-linejoin="round"/>
</g>
<g style="mix-blend-mode:overlay">
<path d="M664.653 384.454L619.67 435.319L582.079 493.754L556.89 561.759L545.241 640.798L554.333 733.709L588.42 843.051L659.13 973.083L757.758 993.967" stroke="#00FF94" stroke-width="0.5" stroke-linecap="round" stroke-linejoin="round"/>
</g>
<g style="mix-blend-mode:overlay">
<path d="M3356 -529.835L3307.43 -493.639L3247.79 -454.367L3206.31 -428.601L3183.5 -416.729L3182.56 -416.278L3143.44 -394.341L3115.09 -380.985L3106.45 -377.178L3073.03 -360.166L3043.48 -347.498L3030.71 -342.573L2996.47 -331.045L2994.58 -331.991L2979.22 -325.217L2978.72 -325.002L2973.09 -322.485L2971.29 -319.474L2969.2 -316.399L2947.17 -309.387L2938.64 -307.473L2936.9 -307L2931.42 -305.021L2923.77 -301.989L2920.58 -300.828L2911.54 -296.892L2901.03 -290.311L2872.21 -280.116L2844.8 -271.341L2816.43 -262.308L2814.41 -261.728L2792.51 -255.232L2790.1 -254.501L2762.36 -246.242L2759.61 -245.468L2756.21 -243.64L2736.55 -236.973L2707.08 -229.768L2701.49 -227.338L2678.84 -221.703L2648.66 -215.208L2624.53 -207.809L2593.6 -198.884L2583.56 -195.765L2532.39 -186.281L2508.73 -181.872L2467.74 -175.893L2434.06 -170.967L2402.49 -168.193L2379.58 -165.763L2364.34 -162.02L2307.64 -152.622L2293.09 -151.138L2211.36 -146.557L2195.95 -145.697L2130.78 -141.137L2056.55 -141.309L1998.8 -141.89L1945.6 -144.492L1910.91 -149.976L1891.76 -156.063L1885.79 -162.128L1844.29 -167.978L1803.69 -174.28L1764.03 -181.033L1725.09 -188.13L1686.81 -195.529L1649.11 -203.185L1611.95 -211.057L1575.31 -219.143L1539.12 -227.402L1503.44 -235.811L1468.13 -244.35L1433.33 -253.06L1398.88 -261.857L1364.86 -270.761L1331.09 -279.729L1297.65 -288.762L1264.29 -297.816L1231 -306.849L1197.54 -315.818L1163.77 -324.722L1129.43 -333.432L1094.27 -341.949L1025.4 -317.861L964.237 -290.138L913.622 -258.674L876.891 -223.423L858.128 -184.603L862.47 -142.47L895.525 -97.8432L964.516 -51.7319L1076.17 -5.96472L1239.15 37.1786L1459.08 74.429L1742.86 101.893L2089.84 115.12L2498.71 109.292L2955.72 80.7306L3144.21 59.8256L3356 36.3183" stroke="#00FF94" stroke-width="0.5" stroke-linecap="round" stroke-linejoin="round"/>
</g>
<g style="mix-blend-mode:overlay">
<path d="M3356 -315.56L3302.46 -293.472L3244.95 -271.019L3188.12 -249.856L3131.23 -229.596L3075.33 -210.433L3019.56 -191.937L2964.84 -174.28L2910.33 -157.074L2856.71 -140.384L2803.21 -123.931L2750.32 -107.672L2697.45 -91.4556L2644.69 -75.1532L2591.82 -58.7002L2538.51 -41.8601L2485.06 -24.6974L2430.58 -6.95405L2376.01 11.3055L2319.91 30.3823L2263.95 50.0828L2206.18 70.8158L2148.9 92.3659L2089.84 115.12L2031.96 138.929L1972.66 164.178L1915.51 190.826L1857.78 219.28L1476.44 188.137L1410.53 213.494L1347.75 240.937L1285.72 270.768L967.159 209.644L899.845 236.786L836.098 267.262L593.836 187.599L525.533 216.204L360.815 129.96L264.808 46.9213L221.565 -31.0205L219.072 -102.338L246.948 -166.967L297.24 -224.585L363.974 -275.815L442.164 -320.829L446.183 -322.657L528.606 -360.338L532.668 -361.843L620.207 -394.642L715.311 -424.429L811.941 -450.022L909.366 -471.938L970.125 -467.572L1025.62 -462.131L1075.95 -455.722L1121.9 -448.517L1163.62 -440.624L1201.84 -432.193L1236.82 -423.289L1269.15 -413.998L1299.15 -404.384L1327.31 -394.534L1354.04 -384.49L1379.6 -374.296L1404.49 -363.994L1428.8 -353.628L1453.02 -343.24L1477.13 -332.809L1501.57 -322.421L1526.2 -312.033L1551.41 -301.709L1577.01 -291.45L1603.34 -281.256L1630.09 -271.148L1657.58 -261.125L1685.54 -251.211L1714.17 -241.382L1743.23 -231.682L1772.93 -222.09L1803.02 -212.691L1833.73 -203.465L1864.9 -194.496L1896.69 -185.764L1929.1 -177.42L1962.26 -169.419L1996.3 -161.999L2031.36 -155.117L2067.12 -147.482L2080.92 -145.439L2106.65 -145.611L2124.48 -146.535H2147.35L2151.69 -146.148L2178.39 -147.611L2195.86 -147.482L2208.37 -147.697L2261.99 -152.493L2266.42 -153.848L2274.16 -154.364L2299.35 -156.751L2312.35 -158.45L2331.65 -159.784L2364.73 -161.182L2409.39 -166.214L2433.54 -171.29L2474.72 -179.291L2497.23 -182.71L2530.52 -188.431L2548.87 -192.41L2559.68 -194.453L2589.69 -201.142L2595.96 -204.045L2614.4 -207.831L2616.21 -208.218L2618.51 -208.519L2618.83 -208.433L2649.26 -214.864L2678 -222.369L2685.52 -225.811L2687.63 -226.198L2691.86 -227.209L2695.09 -227.983L2700.42 -228.521L2709.23 -228.564L2739.34 -235.424L2780.39 -246.264L2794.4 -252.157L2825.33 -262.996L2825.83 -263.147L2830.88 -266.137L2840.03 -270.674L2846.22 -270.825L2874.93 -278.632L2899.78 -288.934L2922.99 -299.58L2944.08 -307.559L2945.32 -308.075L2947.84 -309.904L2952.44 -313.28L2969.97 -321.646L2970.04 -321.689L2976.89 -324.378L2979.39 -324.485L2995.59 -331.561L3012.21 -339.734L3016.61 -341.885L3018.96 -343.132L3022.87 -343.734L3030.82 -345.842L3044.83 -353.434L3051.52 -358.058L3065.66 -365.801L3082.08 -373.866L3091.84 -376.984L3101.01 -379.479L3113.46 -387.652L3134.54 -400.986L3145.52 -408.406L3157.58 -414.923L3173.23 -425.978L3184.77 -433.763L3190.77 -439.097L3208.82 -453.915L3221.78 -464.346L3235.88 -475.68L3248.43 -488.606L3253.78 -497.037L3258.32 -501.597L3270.07 -512.479L3279.06 -525.018L3281.51 -527.212L3289.85 -536.094L3296.96 -546.116L3299.63 -549.644L3299.5 -551.536L3300.38 -554.526L3307.08 -565.666L3304.25 -569.882L3302.59 -572.57L3303.39 -574.377L3304.46 -575.043L3307.3 -583.044L3306.27 -588.786L3306.59 -590.227L3313.68 -613.563L3324.43 -644.146L3331.24 -691.591L3332.57 -739.1L3328.55 -786.243L3339.47 -815.708L3329.67 -861.454L3319.2 -893.93" stroke="#00FF94" stroke-width="0.5" stroke-linecap="round" stroke-linejoin="round"/>
</g>
<g style="mix-blend-mode:overlay">
<path d="M3356 -306.484L3302.46 -293.472L3109.12 -252.63L3099.9 -250.673L2915.71 -217.337L2904.83 -215.38L2733.17 -189.184L2720.64 -187.27L2566.58 -168.107L2551.97 -166.3L2415.96 -153.095L2400.51 -151.611L2286.82 -143.847L2269.23 -142.664L2157.99 -138.32L2067.81 -137.868L1997.16 -140.169L1939.73 -140.04L1883.4 -140.685L1828.6 -142.062L1774.63 -144.019L1721.8 -146.514L1669.55 -149.439L1618.14 -152.751L1594.27 -168.43L1587.04 -183.657L1543.65 -189.915L1500.71 -196.389L1458.22 -203.078L1416.09 -209.938L1374.35 -216.993L1332.9 -224.155L1291.78 -231.467L1250.88 -238.865L1210.2 -246.328L1169.6 -253.834L1129.08 -261.319L1088.42 -268.76L1049.45 -240.457L1025.08 -209.078L1019.39 -174.882L1036.77 -138.427L1082.81 -100.532L1162.87 -62.464L1283.64 -25.9663L1450.07 6.63841L1668.09 32.4685L1939.03 48.2117L2263.95 50.0828L2635.79 34.8773L3043.18 -0.308353L3046.27 -0.566429L3356 -41.2795" stroke="#00FF94" stroke-width="0.5" stroke-linecap="round" stroke-linejoin="round"/>
</g>
<g style="mix-blend-mode:overlay">
<path d="M3356 -631.22L3329.76 -589.152L3311.51 -561.623L3298.64 -542.976L3298.53 -539.514L3282.69 -522.222L3272.35 -511.533L3259.43 -501.037L3256.04 -499.639L3247.96 -489.445L3234.76 -476.39L3222.32 -464.024L3210.71 -453.313L3189.43 -439.505L3169.96 -428.558L3166.76 -427.268L3156.55 -420.257L3155.52 -418.6L3151.31 -415.74L3134.09 -406.255L3131.7 -403.094L3112.13 -390.534L3092.52 -378.877L3080.14 -373.608L3065.53 -366.209L3051.8 -358.101L3044.66 -352.982L3029.66 -346.509L3027.62 -346.788L3020.27 -342.401L2996.02 -331.325L2994.48 -331.088L2980.01 -325.238L2979.73 -324.528L2971.89 -320.549L2959.53 -315.259L2952.44 -313.28L2945.8 -311.022L2935.89 -307.064L2934.58 -306.806L2921.4 -300.462L2906.81 -291.988L2902.21 -288.203L2874.42 -278.912L2846.84 -267.814L2825.7 -258.501L2797.43 -250.501L2780.39 -246.264L2738.48 -235.897L2709.12 -229.746L2705.19 -230.822L2686.34 -226.09L2685.97 -225.208L2676.95 -222.972L2669.47 -221.832L2647.31 -215.982L2617.41 -209.143L2588.38 -201.873L2558.29 -195.27L2551.32 -194.776L2546.75 -193.958L2544.94 -193.636L2525.21 -190.431L2500.36 -185.915L2494.24 -184.431L2480.91 -182.001L2473.74 -180.022L2431.52 -173.097L2402.1 -167.268L2365.65 -163.483L2357.12 -163.848L2331.24 -160.88L2330.12 -160.708L2327.95 -160.45L2326.19 -160.278L2298.14 -157.353L2297.09 -157.246L2283.57 -155.848L2272.8 -154.729L2266.25 -153.912L2261.99 -152.493L2211.25 -148.17L2205.75 -149.482L2202.93 -149.718L2195.86 -147.482L2117.31 -143.46L2057.99 -145.094L2040 -146.535L2038.64 -146.557L2035.03 -146.707L2020.16 -147.976L1986.48 -148.88L1972.6 -152.364L1970.88 -155.955L1930.47 -161.569L1891.33 -167.892L1853.16 -174.688L1815.92 -181.957L1779.4 -189.55L1743.55 -197.486L1708.3 -205.68L1673.57 -214.089L1639.42 -222.692L1605.7 -231.467L1572.54 -240.371L1539.8 -249.447L1507.63 -258.63L1475.84 -267.921L1444.61 -277.32L1413.69 -286.805L1383.23 -296.354L1352.95 -305.946L1322.92 -315.56L1292.83 -325.152L1262.66 -334.701L1232.03 -344.164L1200.83 -353.477L1168.69 -362.596L1135.34 -371.457L1100.43 -379.995L1063.51 -388.103L1024.33 -395.738L982.269 -402.771L937.134 -409.094L888.218 -414.557L835.346 -419.074L742.628 -391.803L653.8 -360.252L570.474 -323.84L498.087 -283.622L495.723 -282.31L434.878 -236.736L432.707 -235.102L386.176 -182.13L361.825 -122.985L367.069 -58.0764L411.494 12.338L505.824 86.5806L578.469 69.3319L734.869 140.671L806.976 121.25L878.568 103.743L951.277 88.0861L1175.18 142.478L1246.73 123.702L1317.31 106.217L1388.88 89.8496L1459.08 74.429L1529.77 59.8042L1598.86 45.8676L1668.09 32.4686L1735.73 19.6073L1803.21 7.11168L1869.3 -4.97532L1935.09 -16.8257L1999.83 -28.3965L2064.2 -39.8813L2127.99 -51.2371L2191.41 -62.5929L2254.77 -74.0347L2317.87 -85.6271L2381.36 -97.5205L2444.74 -109.715L2508.92 -122.447L2573.14 -135.696L2638.41 -149.74L2703.79 -164.515L2770.4 -180.387L2823.05 -193.657L2837.07 -197.206L2904.83 -215.38L2972.55 -234.758L3041.07 -255.705L3109.14 -278.051L3177.44 -302.182L3244.73 -327.84L3311.47 -355.348L3356 -375.307" stroke="#00FF94" stroke-width="0.5" stroke-linecap="round" stroke-linejoin="round"/>
</g>
<g style="mix-blend-mode:overlay">
<path d="M1907.41 993.966L1875.52 972.222L1744.86 864.257L1059.64 763.345L545.241 640.798L183.073 510.916L0 412.886" stroke="#00FF94" stroke-width="0.5" stroke-linecap="round" stroke-linejoin="round"/>
</g>
<g style="mix-blend-mode:overlay">
<path d="M3356 -204.798L3327.76 -189.162L3294.53 -170.322L3262.12 -151.245L3230.42 -131.91L3198.98 -111.995L3168.29 -91.5631L3137.29 -70.2065L3107.12 -48.1187L3076.15 -24.805L3046.27 -0.566426L3015.37 25.1991L2986.03 52.0615L2955.72 80.7305L2927.98 110.711L2899.84 142.757L2875.82 176.351L2852.71 212.333L2321.33 229.323L2280.93 264.186L2246.58 301.308L2215.29 341.311L1702.42 317.374L1657.43 355.656L1620.68 397.509L1173.53 339.698L1125.56 380.024L1082.7 425.081L717.482 340.3L664.654 384.454L394.042 286.704L216.3 188.911L113.416 95.721L67.3575 8.91823L64.5205 -69.97L93.4923 -141.116L145.633 -204.347L214.516 -260.437L218.363 -262.803L294.855 -309.688L299.82 -312.119L383.318 -352.982L476.681 -390.663L482.699 -392.706L573.311 -423.526L579.329 -425.268L671.166 -451.915L678 -453.636L769.537 -476.455L867.048 -497.489L963.527 -515.49L1057.94 -530.717L1150.38 -543.579L1240.09 -554.332L1327.22 -563.236L1411.21 -570.548L1492.24 -576.506L1569.85 -581.324L1644.3 -585.173L1715.16 -588.249L1782.69 -590.701L1846.57 -592.701L1907.02 -594.378L1963.83 -595.884L2017.19 -597.303L2066.99 -598.766L2113.33 -600.336L2156.25 -602.121L2195.82 -604.186L2232.14 -606.551L2265.24 -609.304L2295.26 -612.466L2322.26 -616.079L2346.44 -620.122L2367.76 -624.639L2386.48 -629.629L2402.55 -635.091L2416.22 -641.027L2427.36 -647.415L2436.23 -654.276L2520.91 -633.306L2528.39 -640.619L2605.23 -619.821L2673.59 -599.411L2733.36 -579.667L2785.16 -560.741L2828.92 -542.847L2839.88 -550.568L2877.49 -533.75L2908.48 -518.05L2932.86 -503.661L2951.75 -490.434L2965.16 -478.541L2974.44 -467.68L2979.47 -458.023L2981.8 -449.205L2981.09 -441.377L2979.13 -434.107L2975.33 -427.612L2971.61 -421.332L2967.14 -415.59L2963.96 -409.718L2960.97 -404.105L2930.82 -399.072L2898.96 -394.663L2896.26 -389.028L2862.83 -385.114L2829.69 -381.178L2795.37 -377.694L2761.52 -374.145L2726.7 -370.962L2692.42 -367.629L2657.37 -364.575L2622.87 -361.392L2587.69 -358.424L2584.12 -352.014L2549.17 -348.831L2514.66 -345.519L2479.47 -342.401L2444.44 -339.261L2408.44 -336.357L2372.23 -333.497L2334.72 -330.916L2296.55 -328.464L2256.68 -326.292L2215.72 -324.249L2172.71 -322.464L2128.27 -320.743L2120.68 -331.174L2072.86 -329.712L2065.29 -340.272L2013.78 -338.917L2005.8 -349.606L1999.18 -360.209L1941.52 -358.961L1933.67 -369.758L1925.94 -380.597L1918.63 -391.437L1852.56 -390.018L1784.73 -387.63L1714.9 -384.125L1643.98 -379.2L1572.04 -372.64L1500.13 -364.209L1428.8 -353.628L1359.35 -340.702L1292.83 -325.152L1231 -306.85L1175.61 -285.6L1129.08 -261.319L1094.07 -234.069L1073.96 -203.938L1072.54 -171.29L1094.42 -136.685L1151.74 -134.878L1209.08 -133.05L1266.18 -131.265L1323.35 -129.566L1380.46 -127.975L1437.63 -126.555L1494.91 -125.286L1552.27 -124.275L1609.98 -123.501L1667.86 -123.05L1726.36 -122.964L1785.16 -123.265L1844.91 -124.06L1905.18 -125.372L1966.73 -127.394L2029.04 -130.104L2093.04 -133.76L2157.99 -138.32L2224.96 -144.127L2294.21 -152.665L2301.52 -155.676L2330.85 -160.214L2340.91 -162.494L2357.33 -164.236L2363.59 -165.247L2365.46 -165.72L2366.14 -164.644L2381.49 -165.763L2399.84 -168.537L2416.69 -171.978L2430 -174.021L2452.87 -177.205L2462.11 -179.162L2481.84 -182.452L2494.13 -184.495L2500.11 -185.528L2515.43 -187.205L2527.53 -189.098L2548.87 -192.41L2558.05 -195.4L2582.38 -200.819L2588.48 -201.809L2601.25 -204.777L2618.51 -208.519L2625.24 -209.014L2649.22 -214.885L2653.78 -217.057L2663.99 -219.488L2678.11 -222.778L2694.87 -226.8L2701.49 -227.338L2709.23 -228.564L2735.71 -237.446L2756.21 -243.64L2767.09 -245.748L2793.44 -254.05L2805.9 -259.534L2812.93 -261.534L2817.14 -263.427L2822.28 -265.663L2833.97 -267.448L2846.84 -270.352L2871.99 -280.224L2889.03 -287.321L2895.57 -290.977L2911.54 -296.892L2921.62 -300.247L2924.9 -302.204L2936.49 -307.108L2946.18 -310.828L2946.98 -310.42L2955.53 -314.076L2965.59 -318.764L2971.05 -321.044L2979.07 -324.959L2988.09 -327.84L2996.3 -331.131L3006.45 -337.368L3008.98 -338.486L3014.49 -341.433L3017.32 -342.637L3019.34 -342.895L3023.34 -343.756L3029.66 -346.509L3032.75 -348.982L3042.66 -354.38L3046.42 -355.348L3055.64 -358.531L3066.65 -365.091L3080.25 -373.608L3088.57 -378.898L3091.6 -380.64L3092.35 -381.028L3094.87 -382.34L3106.45 -388.706L3110.34 -390.856L3113.91 -392.082L3132.48 -402.513L3135.83 -406.75L3150.7 -416.686L3154.85 -418.063L3171.08 -428.021L3173.87 -432.408L3179.2 -435.957L3187.16 -441.291L3205.21 -454.453L3209.64 -458.948L3214.88 -463.68L3217.5 -466.303L3218.34 -466.583L3219.01 -466.691L3222.21 -469.164L3232.74 -478.476L3234.8 -481.079L3242.71 -486.929L3246.52 -490.09L3255.91 -498.069L3258.64 -501.425L3258.92 -503.962L3260.75 -506.006L3263.15 -508.715L3267.54 -513.619L3267.19 -514.221L3271.64 -518.888L3277.68 -525.62L3281.34 -528.545L3289.05 -536.761L3294.34 -549.493L3294.94 -553.73L3297.26 -553.708L3300.51 -555.235L3302.59 -561.989L3304.01 -570.118L3304.22 -575.129L3303.86 -577.431L3305.51 -583.388L3305.64 -584.076L3306.61 -588.679L3307.04 -589.217L3306.57 -590.227L3306.01 -591.604L3306.4 -603.003L3307.23 -605.153L3313.21 -632.467L3320.99 -661.61L3331.24 -691.591L3343.71 -722.561L3344.24 -769.296L3339.47 -815.708L3351.87 -845.711L3341.19 -890.575L3342.63 -893.93" stroke="#00FF94" stroke-width="0.5" stroke-linecap="round" stroke-linejoin="round"/>
</g>
<g style="mix-blend-mode:overlay">
<path d="M3109.35 -391.545L3098.71 -398.965L3089.62 -406.815L3059.3 -400.879L3028.82 -395.158L2996.37 -390.233L2964 -385.372L2930 -381.2L2896.34 -377.006L2861.35 -373.328L2826.96 -369.543L2791.54 -366.145L2756.86 -362.553L2721.46 -359.241L2686.9 -355.714L2651.78 -352.359L2617.5 -348.767L2582.75 -345.326L2548.7 -341.713L2514.12 -338.25L2479.99 -334.68L2445.15 -331.325L2410.35 -327.948L2374.57 -324.83L2338.38 -321.797L2300.81 -319.087L2262.4 -316.506L2222.19 -314.248L2180.75 -312.119L2137.25 -310.205L2128.27 -320.743L2081.58 -319.109L2072.86 -329.712L2022.7 -328.206L2013.78 -338.917L1959.92 -337.325L1950.39 -348.143L1941.52 -358.962L1882.09 -357.133L1871.86 -368.081L1808.44 -365.564L1796.42 -376.597L1729.13 -373.07L1714.9 -384.125L1700.63 -395.18L1685.54 -406.234L1609.93 -401.159L1533.18 -394.319L1456.22 -385.437L1379.6 -374.296L1304.53 -360.618L1232.03 -344.165L1163.77 -324.722L1101.49 -302.075L1047.52 -276.095L1004.6 -246.759L976.079 -214.068L965.934 -178.366L979.066 -140.019L1020.65 -99.9081L1097.3 -59.1952L1214.82 -19.6866L1380.59 16.3379L1598.86 45.8672L1874.68 65.2881L2206.18 70.8155L2590.72 58.3844L3015.37 25.1988L3356 -17.3208" stroke="#00FF94" stroke-width="0.5" stroke-linecap="round" stroke-linejoin="round"/>
</g>
<g style="mix-blend-mode:overlay">
<path d="M3356 -421.246L3351.89 -419.074L3284.04 -386.34L3213.46 -355.434L3141.33 -326.679L3067.57 -299.838L2993.42 -275.234L2918.54 -252.48L2844.2 -231.833L2769.73 -212.885L2696.48 -195.851L2623.47 -180.259L2551.97 -166.3L2480.89 -153.525L2411.39 -142.083L2342.29 -131.566L2274.63 -122.082L2207.27 -113.307L2141.05 -105.306L2075.01 -97.8218L2009.71 -90.8535L1944.44 -84.2723L1879.53 -78.0137L1814.48 -71.9917L1749.4 -66.1418L1684.1 -60.4424L1618.42 -54.8075L1552.51 -49.2157L1485.92 -43.5593L1419.12 -37.8599L1351.44 -32.01L1283.64 -25.9664L1214.82 -19.6864L1146.02 -13.0192L1076.17 -5.96484L1006.43 1.71323L935.673 10.0149L865.135 19.2631L793.608 29.4789L693.281 -29.6442L623.818 -21.7295L572.967 -82.1216L559.34 -138.922L575.051 -190.969L613.093 -238.199L667.985 -280.31L735.492 -317.603L811.984 -350.208L895.031 -378.511L982.268 -402.771L1072.32 -423.375L1163.62 -440.624L1255.42 -454.883L1346.72 -466.432L1436.98 -475.573L1525.64 -482.606L1612.3 -487.746L1696.66 -491.295L1778.39 -493.488L1806.91 -481.703L1830.81 -470.003L1850.86 -458.41L1867.35 -446.947L1881.17 -435.613L1892.49 -424.429L1902.36 -413.331L1910.72 -402.363L1918.63 -391.437L1982.14 -392.147L2043.61 -392.276L2102.28 -392.039L2158.89 -391.545L2212.73 -390.964L2264.64 -390.319L2313.94 -389.824L2361.61 -389.372L2367.71 -397.975L2414.63 -397.352L2459.21 -397.029L2502.38 -396.878L2543.41 -397.158L2583.35 -397.631L2621.3 -398.556L2658.38 -399.717L2693.65 -401.373L2728.12 -403.288L2760.87 -405.739L2792.92 -408.492L2823.27 -411.804L2852.9 -415.418L2880.82 -419.676L2908.1 -424.235L2933.52 -429.483L2958.26 -435.097L2981.09 -441.377L3003.16 -448.065L3023.23 -455.464L3042.4 -463.249L3059.4 -471.809L3075.37 -480.799L3088.87 -490.563L3101.01 -500.822L3110.34 -511.899L3117.82 -523.534L3121.97 -536.073L3123.67 -549.235L3121.35 -563.387L3115.76 -578.248L3105.33 -594.185L3090.76 -610.896L3070.45 -628.682L3045.09 -647.329L3043.39 -648.361L3013.13 -666.986L3010.72 -668.32L2975.2 -687.461L2972.75 -688.623L2929.98 -708.839L2926.73 -710.216L2878.03 -730.884L2874.72 -732.132L2818.28 -753.617L2814.2 -755.015L2751.29 -776.78L2747.12 -778.092L2676.22 -800.309L2671.38 -801.707L2593.64 -823.967L2588.63 -825.279L2502.97 -847.625L2497.38 -848.958L2404.64 -871.068L2398.88 -872.315L2299.35 -893.93" stroke="#00FF94" stroke-width="0.5" stroke-linecap="round" stroke-linejoin="round"/>
</g>
<g style="mix-blend-mode:overlay">
<path d="M3356 -347.799L3352.58 -346.272L3290.21 -320.227L3226.85 -295.558L3163.6 -272.503L3099.9 -250.673L3036.88 -230.306L2973.71 -210.971L2911.58 -192.862L2849.51 -175.57L2788.49 -159.246L2727.6 -143.503L2667.64 -128.448L2607.7 -113.758L2548.42 -99.4777L2489.04 -85.3475L2429.85 -71.3679L2370.46 -57.3667L2310.74 -43.258L2250.73 -28.9988L2189.84 -14.3955L2128.65 0.487456L2066.15 15.8866L2003.42 31.7158L1939.03 48.2118L1874.68 65.2885L1808.54 83.2039L1742.86 101.894L1675.55 121.616L1609.33 142.413L1541.89 164.544L1476.44 188.137L1175.18 142.478L1105.27 162.888L1034.99 185.083L967.159 209.644L734.869 140.671L664.331 162.759L593.836 187.6L433.653 106.754L338.527 28.0381L295.392 -45.8174L291.738 -113.974L318.109 -175.613L366.833 -230.951L431.761 -279.965L434.835 -281.686L508.554 -323.259L511.735 -324.657L593.385 -361.047L683.932 -393.996L777.725 -422.407L873.667 -446.818L929.956 -442.366L981.645 -436.903L1028.84 -430.494L1072.32 -423.375L1112.25 -415.59L1149.33 -407.288L1183.8 -398.534L1216.19 -389.437L1246.86 -380.038L1276.18 -370.425L1304.53 -360.617L1332.1 -350.702L1359.35 -340.702L1386.3 -330.636L1413.39 -320.593L1440.53 -310.527L1468.1 -300.526L1495.94 -290.569L1524.37 -280.697L1553.19 -270.89L1582.66 -261.19L1612.56 -251.619L1643.07 -242.134L1674.02 -232.8L1705.6 -223.574L1737.58 -214.541L1770.14 -205.68L1803.21 -197.077L1836.91 -188.711L1871.24 -180.689L1906.34 -173.011L1942.31 -165.849L1979.3 -159.203L2017.54 -153.289L2055.56 -146.965L2060.89 -145.912L2070.6 -146.256L2074.45 -145.804L2080.92 -145.438L2088.78 -145.417L2124.78 -145.675L2128.48 -145.783L2141.42 -146.428L2148.6 -146.944L2150.15 -146.858L2175.06 -148.062L2202.5 -149.89L2205.62 -149.525L2229.86 -150.944L2233.3 -151.718L2263.54 -153.095L2294.21 -152.665L2305.19 -153.848L2364.47 -161.956L2381.94 -165.784L2398.62 -168.881L2414.2 -171.828L2429.74 -173.677L2474.72 -179.291L2495.16 -183.893L2500.15 -185.635L2503.44 -186.237L2525.81 -189.958L2557.77 -195.572L2576.13 -198.948L2589.26 -201.357L2623.28 -209.143L2648.02 -215.573L2678.11 -222.305L2685.69 -225.036L2697.84 -227.036L2706.82 -229.918L2715.14 -232.8L2734.29 -238.22L2761.41 -246.758L2769.04 -248.909L2789.67 -254.738L2791.35 -254.501L2824.53 -262.953L2833.05 -265.255L2846.48 -270.674L2872.08 -280.181L2890.52 -287.106L2893.38 -288.031L2897.2 -290.095L2906.81 -291.988L2910.96 -290.956L2925.7 -298.247L2946.7 -308.204L2969.2 -316.399L2974.32 -320.571L2974.72 -323.13L2979.28 -325.044L2994.58 -331.991L2995.34 -331.927L3021.94 -342.121L3029.66 -346.509L3037.27 -352.122L3041.97 -354.939L3044.83 -353.95L3063.32 -359.391L3063.49 -359.456L3064.22 -359.757L3070.02 -363.349L3092.07 -375.199L3101.01 -379.479L3116.04 -386.877L3125.17 -392.448L3135.47 -400.298L3145.5 -408.428L3156.64 -416.278L3172.39 -426.279L3190.87 -438.366L3208.82 -453.915L3222.32 -464.024L3238.09 -474.261L3251.85 -486.714L3257.24 -495.359L3259.43 -501.037L3268.33 -513.705L3271.53 -517.06L3280.09 -526.76L3281.14 -530.158L3287.27 -537.126L3294.34 -549.471L3294.94 -553.73L3294.88 -554.052L3298.01 -560.311L3298.96 -562.505L3302.05 -570.892L3302.29 -571.452L3302.57 -572.613L3303.32 -575.43L3303.86 -577.431L3307.32 -583.324L3326.17 -628.897L3337.73 -675.632L3343.71 -722.561L3356 -749.552" stroke="#00FF94" stroke-width="0.5" stroke-linecap="round" stroke-linejoin="round"/>
</g>
<g style="mix-blend-mode:overlay">
<path d="M3340.05 -893.93L3341.19 -890.575L3329.67 -861.454L3319.4 -832.914L3310.65 -804.933L3303.52 -777.727L3298.31 -751.208L3295.03 -725.572L3293.91 -700.688L3292.94 -677.31L3292.66 -672.17L3294.88 -664.965L3297.13 -657.609L3298.38 -653.609L3301.28 -649.501L3304.96 -625.693L3305.32 -620.531L3305.43 -620.38L3305.66 -617.455L3306.44 -608.917L3306.57 -607.326L3307.66 -605.153L3309.88 -596.938L3308.61 -587.948L3306.76 -577.818L3304.01 -570.118L3302.89 -565.43L3301.6 -560.462L3297.22 -552.375L3294.32 -549.493L3292.62 -549.514L3289.33 -543.557L3287.14 -537.492L3281.14 -530.115L3278.46 -527.9L3277.34 -525.771L3272.22 -518.179L3269.69 -512.931L3257.5 -501.984L3253.78 -497.037L3248.52 -488.563L3235.6 -479.208L3232.44 -478.627L3226.81 -473.659L3221.46 -469.422L3218.81 -466.282L3216.28 -463.486L3208.6 -458.668L3204.89 -454.647L3188.12 -440.516L3172.11 -430.58L3170.56 -430.602L3169.75 -429.032L3165.9 -426.58L3162.37 -425.225L3150.1 -417.138L3149.87 -417.009L3135.38 -406.664L3132.07 -402.836L3109.85 -389.889L3104.24 -387.824L3087.62 -379.027L3079.59 -373.522L3066.88 -364.94L3057.94 -360.918L3048.81 -357.757L3043.07 -354.015L3035.16 -350.961L3020.46 -343.068L2997.81 -330.249L2992.84 -326.292L2970.75 -319.259L2952.29 -313.624L2946.55 -310.613L2941.99 -307.667L2923.64 -299.257L2897.65 -290.461L2895.33 -291.085L2882.11 -286.095L2869.6 -281.514L2853.55 -275.793L2844.37 -271.793L2826.71 -266.029L2817.08 -263.212L2807.58 -260.566L2807 -260.846L2790.6 -254.222L2770.12 -247.554L2763.6 -245.576L2756.64 -243.532L2739.55 -239.532L2734.98 -237.855L2708.3 -229.08L2702.09 -225.768L2681.57 -220.369L2663.81 -217.487L2653.78 -217.057L2650.51 -216.175L2647.74 -215.724L2643.89 -215.079L2623.28 -209.143L2588.48 -201.809L2582.47 -201.163L2557.1 -195.959L2551.41 -194.862L2547.8 -193.184L2526.8 -189.378L2511.88 -186.926L2495.16 -183.893L2489.55 -183.011L2464.77 -177.613L2434.06 -170.967L2403.15 -168.322L2397.12 -169.333L2371.07 -165.741L2365.59 -164.15L2331.41 -159.913L2330.19 -161.031L2299.2 -156.816L2288.47 -154.342L2264.27 -152.772L2257.63 -153.138L2249.2 -152.471L2236.95 -151.568L2216.47 -150.342L2203.51 -149.525L2178.47 -147.374L2151.31 -146.234L2130.18 -143.417L2067.81 -137.868L2006.02 -135.567L1946.05 -134.255L1887.01 -133.653L1829.41 -133.803L1772.46 -134.47L1716.6 -135.674L1661.17 -137.309L1606.52 -139.309L1552.14 -141.632L1498.24 -144.234L1444.55 -147.095L1391.12 -150.17L1337.86 -153.439L1284.71 -156.837L1269.13 -183.356L1272.63 -208.39L1291.78 -231.467L1323.4 -252.286L1364.86 -270.761L1413.69 -286.805L1468.1 -300.526L1526.2 -312.033L1586.85 -321.517L1648.62 -329.195L1710.93 -335.26L1772.59 -339.97L1833.5 -343.541L1892.69 -346.208L1950.39 -348.143L2005.8 -349.606L2059.45 -350.681L2110.58 -351.606L2159.99 -352.402L2206.97 -353.262L2252.45 -354.165L2295.8 -355.262L2337.97 -356.466L2378.35 -357.929L2384.39 -365.672L2391.2 -373.457L2399.18 -381.2L2406.89 -389.2L2450.85 -389.136L2492.71 -389.437L2533.53 -389.91L2572.47 -390.77L2610.62 -391.824L2647.07 -393.308L2682.88 -394.986L2717.09 -397.136L2750.79 -399.502L2782.88 -402.384L2814.5 -405.524L2844.46 -409.223L2873.92 -413.181L2901.69 -417.762L2928.92 -422.665L2954.33 -428.214L2958.26 -435.097L2959.77 -442.839L2959.34 -451.291L2955.27 -460.884L2947.79 -471.422L2935.41 -483.251L2918.22 -496.22L2894.92 -510.544L2865.5 -526.05L2828.92 -542.847L2816.3 -535.642L2773.49 -553.493L2723 -572.334L2664.12 -592.077L2596.93 -612.466L2520.91 -633.306L2511.3 -626.445L2499.27 -620.079L2485 -614.208L2468.17 -608.853L2448.89 -603.992L2426.9 -599.648L2402.25 -595.798L2374.7 -592.464L2344.22 -589.604L2310.63 -587.216L2273.9 -585.216L2233.9 -583.625L2190.57 -582.334L2143.83 -581.324L2093.62 -580.463L2039.93 -579.689L1982.66 -578.893L1921.92 -577.947L1857.55 -576.721L1789.78 -575.086L1718.45 -572.893L1643.81 -569.946L1565.72 -566.075L1484.57 -561.107L1400.17 -554.784L1313.02 -546.934L1222.98 -537.255L1130.72 -525.534L1036.09 -511.447L939.993 -494.714L842.503 -474.949L744.756 -451.829L647.18 -424.859L556.439 -395.308L551.431 -393.674L458.605 -357.671L375.258 -318.377L371.217 -316.485L295.456 -271.642L291.609 -269.341L223.736 -215.939L172.176 -155.504L143.397 -87.9499L145.74 -12.847L189.542 69.1167L288.665 157.253L458.133 248.83L717.482 340.3L774.2 301.394L836.098 267.262L1173.53 339.698L1228.38 303.566L1285.72 270.768L1702.42 317.374L1750.26 282.188L1803.64 249.583L1857.78 219.28L2321.33 229.323L2362.51 196.74L2407.56 165.877L2451.96 136.907L2498.71 109.292L2544.06 83.2899L2590.72 58.3846L2635.79 34.8773L2681.52 12.2303L2725.82 -9.2338L2770.42 -29.9882L2814.03 -49.8393L2857.83 -69.1527L2901.16 -87.8424L2944.74 -106.188L2988.44 -124.211L3032.41 -142.105L3076.99 -159.999L3121.97 -178L3167.92 -196.324L3214.28 -214.993L3261.78 -234.306L3309.6 -254.222L3356 -273.965" stroke="#00FF94" stroke-width="0.5" stroke-linecap="round" stroke-linejoin="round"/>
</g>
<g style="mix-blend-mode:overlay">
<path d="M3356 -347.24L3352.58 -346.272L3190.51 -305.473L3177.44 -302.183L3022.03 -267.363L3006.47 -263.878L2862.51 -235.446L2844.2 -231.833L2736.8 -213.229L2692.87 -205.615L2604.69 -192.475L2556.18 -185.227L2508.51 -176.151L2482.01 -172.107L2427.29 -166.387L2364.47 -161.956L2349.55 -162.472L2331.65 -159.784L2299.35 -156.751L2273.43 -154.708L2265.82 -154.127L2236.95 -151.568L2233.3 -151.719L2206.33 -149.245L2178.79 -147.632L2174.22 -148.127L2159.09 -147.353L2149.54 -146.708L2128.48 -145.783L2124.78 -145.675L2106.64 -145.611L2100.91 -145.976L2091 -145.761L2087.92 -145.89L2078.36 -145.761L2074.32 -145.374L2065.9 -145.331L2013.99 -145.783L1961.76 -147.46L1910.91 -149.977L1861.74 -153.289L1813.62 -157.203L1766.74 -161.698L1759.07 -171.634L1716.77 -177.764L1675.12 -184.216L1634.18 -190.969L1593.75 -197.98L1553.86 -205.228L1514.44 -212.67L1475.43 -220.305L1436.9 -228.112L1398.68 -236.048L1360.9 -244.113L1323.4 -252.286L1286.24 -260.566L1249.25 -268.889L1212.43 -277.256L1175.61 -285.601L1138.71 -293.881L1101.49 -302.075L1063.79 -310.076L1006.21 -283.256L959.379 -252.824L926.71 -218.907L912.289 -181.592L920.865 -141.417L958.412 -99.0262L1030.91 -55.6893L1146.02 -13.0192L1309.79 26.4894L1529.77 59.8039L1808.54 83.2037L2148.9 92.3658L2544.06 83.2897L2981.99 52.341L2986.03 52.0614L3356 8.59546" stroke="#00FF94" stroke-width="0.5" stroke-linecap="round" stroke-linejoin="round"/>
</g>
<g style="mix-blend-mode:overlay">
<path d="M3041.8 -355.025L3039.01 -356.638L3024.39 -366.102L3011.88 -374.984L3003.27 -382.77L2968.99 -378.447L2935.09 -374.145L2899.74 -370.381L2864.98 -366.532L2829.16 -363.091L2794.14 -359.456L2758.34 -356.101L2723.46 -352.487L2688.08 -349.068L2653.65 -345.347L2618.85 -341.777L2584.92 -337.949L2550.66 -334.228L2517.02 -330.335L2482.91 -326.593L2449.11 -322.786L2414.57 -319.194L2379.92 -315.646L2344.16 -312.398L2307.84 -309.28L2269.99 -306.505L2231.13 -303.881L2190.4 -301.602L2148.34 -299.429L2137.25 -310.204L2092.22 -308.333L2081.58 -319.108L2033.29 -317.388L2022.7 -328.206L1970.88 -326.421L1959.92 -337.325L1904.42 -335.239L1892.69 -346.207L1882.09 -357.133L1820.54 -354.552L1808.44 -365.564L1743.14 -362.037L1729.13 -373.07L1660.33 -368.209L1591.02 -361.779L1521.54 -353.52L1453.02 -343.239L1386.3 -330.636L1322.92 -315.56L1264.29 -297.816L1212.43 -277.256L1169.6 -253.834L1138.63 -227.617L1122.68 -198.755L1125.64 -167.634L1151.74 -134.878L1206 -101.37L1293.24 -68.4643L1419.12 -37.8596L1587.67 -11.7715L1803.22 7.11172L2066.15 15.8867L2376.01 11.3056L2725.82 -9.23364L3104.62 -47.882L3107.12 -48.1186L3356 -84.3581" stroke="#00FF94" stroke-width="0.5" stroke-linecap="round" stroke-linejoin="round"/>
</g>
<g style="mix-blend-mode:overlay">
<path d="M3356 66.2773L3203.02 82.1496L2927.98 110.711L2451.96 136.907L2031.96 138.928L1675.55 121.615L1388.88 89.8491L1167.21 48.491L1006.43 1.71295L897.244 -47.3663L832.445 -96.166L768.548 -93.9723L704.264 -90.9828L638.948 -87.1761L572.967 -82.1219L505.609 -75.8848L437.199 -67.8626L367.069 -58.0769L295.392 -45.8178L221.565 -31.0209L145.74 -12.8474L67.3573 8.91785L0 30.9627" stroke="#00FF94" stroke-width="0.5" stroke-linecap="round" stroke-linejoin="round"/>
</g>
</g>
</g>
</g>
<g style="mix-blend-mode:overlay">
<g style="mix-blend-mode:overlay">
<g style="mix-blend-mode:overlay">
<g style="mix-blend-mode:overlay">
<path d="M3356 835.093L2452.44 829.523L2341.88 744.075L2263.13 667.897L2214.19 599.504L2184.77 537.908L2175.27 481.989L2177.44 431.103L2193.11 384.325L2215.29 341.311" stroke="#00FF94" stroke-width="0.5" stroke-linecap="round" stroke-linejoin="round"/>
</g>
<g style="mix-blend-mode:overlay">
<path d="M3356 297.759L2818.28 334.063L2215.29 341.311" stroke="#00FF94" stroke-width="0.5" stroke-linecap="round" stroke-linejoin="round"/>
</g>
<g style="mix-blend-mode:overlay">
<path d="M3356 346.731L2820.95 380.605L2193.11 384.325L1657.43 355.656L1228.38 303.566L899.845 236.786L664.331 162.759L505.824 86.5806L433.653 106.754L360.815 129.96L288.665 157.253L216.3 188.911L145.289 226.291L75.0731 269.95L7.65133 321.653L0 328.88" stroke="#00FF94" stroke-width="0.5" stroke-linecap="round" stroke-linejoin="round"/>
</g>
<g style="mix-blend-mode:overlay">
<path d="M3356 251.97L2822.32 290.92L2246.58 301.308L1750.26 282.188L1347.75 240.937L1034.99 185.083L806.976 121.25L650.253 54.1907L554.053 -12.2018L505.609 -75.8844L495.357 -135.158L514.271 -189.528L555.472 -238.478L613.415 -282.267L683.524 -320.808L762.637 -354.638L847.769 -383.91L937.134 -409.094L1028.84 -430.494L1121.9 -448.517L1215.05 -463.443L1307.77 -475.637L1399.22 -485.38L1489.04 -492.951L1576.77 -498.629L1612.3 -487.746L1643.18 -476.734L1669.88 -465.615L1693.04 -454.431L1712.99 -443.248L1730.55 -432.086L1745.87 -420.923L1759.84 -409.804L1772.5 -398.706L1784.73 -387.63L1796.42 -376.597L1862.32 -379.027L1925.94 -380.597L1987.71 -381.458L2046.81 -381.845L2103.92 -381.866L2158.29 -381.716L2210.75 -381.436L2260.64 -381.243L2308.82 -381.049L2354.69 -381.071L2399.18 -381.2L2441.6 -381.63L2483.02 -382.189L2522.63 -383.114L2561.51 -384.168L2598.8 -385.609L2635.57 -387.179L2670.89 -389.179L2705.81 -391.308L2739.32 -393.91L2772.48 -396.663L2804.18 -399.932L2835.6 -403.374L2865.37 -407.417L2894.84 -411.675L2922.58 -416.579L2949.86 -421.741L2975.33 -427.612L3000.24 -433.785L3000.9 -433.978L3023.12 -440.71L3024.91 -441.291L3045.37 -447.979L3065.4 -456.044L3084.55 -464.497L3101.21 -473.766L3116.75 -483.509L3129.43 -494.112L3140.5 -505.253L3148.25 -517.34L3153.8 -530.051L3155.37 -543.794L3153.93 -558.246L3147.76 -573.818L3137.68 -590.206L3121.99 -607.734L3101.4 -626.144L3074.36 -645.694L3072.92 -646.576L3041.46 -666.105L3040.1 -666.814L3001.35 -687.526L2999.33 -688.494L2954.56 -709.7L2952.54 -710.56L2899.99 -732.712L2897.31 -733.723L2838.1 -756.263L2835.35 -757.209L2768.1 -780.329L2764.76 -781.383L2690.47 -804.654L2686.98 -805.643L2604.6 -829.107L2600.61 -830.161L2510.92 -853.475L2506.73 -854.464L2409.06 -877.606L2404.47 -878.595L2333.37 -893.93" stroke="#00FF94" stroke-width="0.5" stroke-linecap="round" stroke-linejoin="round"/>
</g>
<g style="mix-blend-mode:overlay">
<path d="M3356 209.515L2835.9 250.228L2280.93 264.186L1803.64 249.583L1410.53 213.494L1105.27 162.888L878.568 103.743L722.404 41.1143L623.818 -21.7295L554.053 -12.2018L483.042 -1.06117L411.494 12.3378L338.527 28.038L264.808 46.9212L189.542 69.1166L113.416 95.7209L35.8494 127.035L0 144.198" stroke="#00FF94" stroke-width="0.5" stroke-linecap="round" stroke-linejoin="round"/>
</g>
<g style="mix-blend-mode:overlay">
<path d="M3356 399.681L2837.8 430.329L2177.44 431.103L1620.68 397.509L1589.92 443.577L1571.29 494.7L1563.4 551.693L1573.61 615.763L1602.02 688.07L1658.14 770.335L1744.86 864.257L2608.47 925.595L3356 927.122" stroke="#00FF94" stroke-width="0.5" stroke-linecap="round" stroke-linejoin="round"/>
</g>
<g style="mix-blend-mode:overlay">
<path d="M3356 456.675L2866.57 484.312L2175.27 481.989L1589.92 443.577L1125.56 380.023L774.2 301.393L525.533 216.204L458.132 248.83L394.042 286.704L332.402 330.342L276.049 381.421L224.961 440.846L183.072 510.916L151.779 593.331L137.229 691.361L143.956 808.144L182.6 948.909L331.886 993.966" stroke="#00FF94" stroke-width="0.5" stroke-linecap="round" stroke-linejoin="round"/>
</g>
<g style="mix-blend-mode:overlay">
<path d="M3356 132.842L2875.82 176.351L2362.51 196.74L1915.51 190.825L1541.89 164.544L1246.73 123.702L1023.15 73.7406L865.134 19.2631L761.691 -36.5264L704.264 -90.9825L683.352 -142.75L691.648 -190.668L722.532 -234.414L770.74 -273.621L832.058 -308.463L902.94 -338.96L980.871 -365.456L1063.51 -388.103L1149.33 -407.288L1236.82 -423.289L1325.05 -436.387L1413.08 -446.882L1500.24 -455.077L1586.01 -461.228L1669.88 -465.615L1751.63 -468.454L1830.81 -470.003L1907.43 -470.476L1981.06 -470.11L2051.9 -469.056L2067.53 -457.141L2079.5 -445.549L2087.97 -434.344L2094.11 -423.397L2155.75 -422.149L2215.05 -420.665L2271.34 -419.138L2325.39 -417.568L2376.59 -416.192L2425.76 -414.944L2472.3 -414.02L2517.02 -413.31L2559.3 -413.052L2600.02 -413.073L2638.47 -413.611L2675.61 -414.493L2710.62 -415.934L2744.43 -417.74L2776.24 -420.149L2806.98 -422.945L2835.73 -426.408L2863.52 -430.236L2889.38 -434.752L2914.29 -439.678L2937.26 -445.269L2959.34 -451.291L2979.47 -458.023L2998.58 -465.164L3015.73 -473.035L3031.79 -481.315L3045.67 -490.327L3058.31 -499.79L3068.52 -510.006L3077.16 -520.716L3082.94 -532.223L3086.68 -544.31L3087.02 -557.236L3084.66 -570.807L3078.15 -585.302L3068.17 -600.508L3053.21 -616.703L3033.91 -633.693L3008.75 -651.652L2978.27 -670.406L2941.2 -690.107L2937.59 -691.806L2898 -710.517L2894.23 -712.087L2847.49 -731.723L2842.82 -733.486L2790.23 -753.467L2785.4 -755.123L2725.2 -775.77L2719.52 -777.555L2653 -798.352L2647.11 -800.03L2572.84 -821.193L2566.17 -822.935L2485.3 -844.012L2478.44 -845.625L2389.76 -866.702L2382.24 -868.336L2286.77 -889.048L2262.06 -893.93" stroke="#00FF94" stroke-width="0.5" stroke-linecap="round" stroke-linejoin="round"/>
</g>
<g style="mix-blend-mode:overlay">
<path d="M3356 98.2803L2899.84 142.757L2407.56 165.877L1972.66 164.178L1609.33 142.413L1317.31 106.216L1095.73 60.6644L935.673 10.015L829.93 -42.2903L768.548 -93.972L743.853 -143.266L748.023 -189.27L775.017 -231.295L819.571 -269.19L877.428 -302.828L945.302 -332.4L1020.31 -358.015L1100.43 -379.995L1183.8 -398.534L1269.15 -413.998L1355.29 -426.623L1441.39 -436.688L1526.76 -444.517L1610.75 -450.345L1693.04 -454.431L1773.08 -457.055L1850.86 -458.41L1925.85 -458.754L1998.24 -458.238L2067.53 -457.141L2134.09 -455.55L2144.39 -444.044L2151.59 -432.881L2212.11 -431.247L2270.18 -429.44L2325.22 -427.698L2377.97 -426.021L2427.81 -424.601L2475.56 -423.354L2520.59 -422.515L2563.77 -421.977L2604.43 -421.934L2643.44 -422.257L2680.13 -423.139L2715.31 -424.407L2748.32 -426.322L2779.98 -428.644L2809.55 -431.612L2837.95 -435.032L2864.3 -439.118L2889.55 -443.635L2912.83 -448.861L2935.01 -454.517L2955.27 -460.884L2974.44 -467.68L2991.66 -475.164L3007.76 -483.1L3021.75 -491.746L3034.54 -500.844L3045.03 -510.651L3054.03 -520.932L3060.39 -531.986L3064.84 -543.557L3066.15 -555.924L3065.01 -568.914L3060.05 -582.765L3051.88 -597.282L3039.14 -612.745L3022.33 -628.94L3000.09 -646.082L2972.9 -663.997L2939.41 -682.859L2900.15 -702.409L2896.23 -704.129L2853.85 -722.797L2848.99 -724.733L2801.11 -743.767L2796.01 -745.595L2740.8 -765.36L2734.76 -767.317L2673.51 -787.297L2667.25 -789.168L2598.39 -809.579L2591.21 -811.536L2516.03 -831.946L2508.64 -833.774L2425.72 -854.292L2417.58 -856.142L2328.1 -876.401L2319.76 -878.122L2243.08 -893.93" stroke="#00FF94" stroke-width="0.5" stroke-linecap="round" stroke-linejoin="round"/>
</g>
<g style="mix-blend-mode:overlay">
<path d="M3356 518.68L2916.18 542.553L2184.77 537.908L1571.29 494.7L1082.7 425.081" stroke="#00FF94" stroke-width="0.5" stroke-linecap="round" stroke-linejoin="round"/>
</g>
<g style="mix-blend-mode:overlay">
<path d="M3356 586.299L2985.56 606.214L2214.19 599.504L1563.4 551.694L1050.03 476.053L664.653 384.454" stroke="#00FF94" stroke-width="0.5" stroke-linecap="round" stroke-linejoin="round"/>
</g>
<g style="mix-blend-mode:overlay">
<path d="M2205.62 993.966L1875.52 972.223L1120.57 865.139L1059.64 763.345L1026.89 675.596L1018.7 599.827L1026.63 533.757L1050.03 476.053L1082.7 425.081" stroke="#00FF94" stroke-width="0.5" stroke-linecap="round" stroke-linejoin="round"/>
</g>
<g style="mix-blend-mode:overlay">
<path d="M3356 -63.6467L3076.15 -24.8049L2681.52 12.2304L2319.91 30.3824L2003.42 31.7159L1735.73 19.6073L1519.47 -2.71701L1351.44 -32.0098L1228.4 -65.5179L1144.43 -101.005L1094.42 -136.685L1036.77 -138.427L979.066 -140.019L920.865 -141.417L862.47 -142.47L803.387 -143.18L743.853 -143.266L683.352 -142.75L622.012 -141.287L559.34 -138.922L495.358 -135.158L429.548 -130.039L361.825 -122.985L291.738 -113.973L219.072 -102.338L143.398 -87.9498L64.5203 -69.9698L0 -52.9146" stroke="#00FF94" stroke-width="0.5" stroke-linecap="round" stroke-linejoin="round"/>
</g>
<g style="mix-blend-mode:overlay">
<path d="M3356 660.842L3085.37 675.51L2263.13 667.897L1573.61 615.763L1026.63 533.757L619.67 435.319L332.402 330.342L145.289 226.291L35.8494 127.035L0 60.2771" stroke="#00FF94" stroke-width="0.5" stroke-linecap="round" stroke-linejoin="round"/>
</g>
<g style="mix-blend-mode:overlay">
<path d="M3356 -103.65L3137.29 -70.2063L3136.24 -70.0988L2770.42 -29.988L2768.31 -29.859L2430.58 -6.95386L2128.65 0.487592L1869.3 -4.97524L1655.6 -20.6109L1485.92 -43.559L1358 -71.3248L1267.15 -101.736L1209.08 -133.05L1178.62 -163.977L1171.44 -193.571L1183.16 -221.143L1210.2 -246.328L1249.25 -268.889L1297.65 -288.762L1352.95 -305.946L1413.39 -320.592L1477.13 -332.808L1543.09 -342.852L1609.87 -350.896L1676.93 -357.219L1743.14 -362.037L1757.72 -350.982L1772.59 -339.97L1788.41 -328.959L1804.78 -317.947L1822.32 -306.935L1840.59 -295.967L1860.04 -284.955L1880.18 -273.965L1901.44 -262.953L1949.84 -266.072L1970.62 -254.867L1992.03 -243.704L2014.4 -232.478L2037.2 -221.315L2081.18 -223.058L2103.79 -211.616L2146.73 -212.885L2169.34 -201.163L2211.29 -202.11L2234.14 -190.001L2275.23 -190.732L2298.49 -178.194L2338.94 -178.753L2362.73 -165.72L2365.63 -165.741" stroke="#00FF94" stroke-width="0.5" stroke-linecap="round" stroke-linejoin="round"/>
</g>
<g style="mix-blend-mode:overlay">
<path d="M3356 817.758L3216.75 751.753L3085.37 675.51L2985.56 606.214L2916.18 542.553L2866.57 484.312L2837.8 430.329L2820.95 380.604L2818.28 334.063L2822.32 290.92L2835.9 250.228L2852.71 212.333" stroke="#00FF94" stroke-width="0.5" stroke-linecap="round" stroke-linejoin="round"/>
</g>
<g style="mix-blend-mode:overlay">
<path d="M2739.38 993.967L2608.47 925.595L2452.44 829.523L1658.14 770.335L1026.89 675.596L556.89 561.759L224.961 440.846L7.65133 321.654L0 314.943" stroke="#00FF94" stroke-width="0.5" stroke-linecap="round" stroke-linejoin="round"/>
</g>
<g style="mix-blend-mode:overlay">
<path d="M3356 743.881L3216.75 751.753L2341.88 744.075L1602.02 688.07L1018.7 599.827L582.079 493.753L276.049 381.422L75.0731 269.95L0 202.482" stroke="#00FF94" stroke-width="0.5" stroke-linecap="round" stroke-linejoin="round"/>
</g>
<g style="mix-blend-mode:overlay">
<path d="M3356 -399.18L3289.46 -368.64L3220.47 -339.691L3149.76 -312.506L3078.58 -287.343L3006.47 -263.878L2934.73 -242.371L2862.71 -222.391L2791.65 -204.174L2720.64 -187.27L2650.92 -171.871L2581.41 -157.525L2513.28 -144.406L2445.39 -132.126L2378.72 -120.77L2312.2 -110.038L2246.63 -99.9724L2181.05 -90.3157L2116.06 -81.1107L2050.89 -72.1637L1985.88 -63.4533L1920.61 -54.8719L1855.05 -46.3336L1789.14 -37.8383L1722.53 -29.2785L1655.6 -20.6111L1587.67 -11.7717L1519.47 -2.71714L1450.07 6.63841L1380.59 16.3381L1309.79 26.4895L1239.15 37.1786L1167.21 48.4913L1095.73 60.6644L1023.15 73.7407L951.277 88.086L793.608 29.479L722.404 41.1143L650.254 54.1907L578.469 69.3318L483.043 -1.06111L437.199 -67.8623L429.548 -130.039L451.427 -186.582L495.508 -237.618L556.052 -282.934L628.783 -323.001L709.938 -357.993L797.219 -388.426L888.218 -414.557L981.645 -436.903L1075.95 -455.722L1170.5 -471.422L1264.23 -484.326L1356.77 -494.757L1447.49 -502.973L1536.13 -509.253L1622.25 -513.856L1662.14 -502.65L1696.66 -491.295L1726.27 -479.874L1751.63 -468.454L1773.08 -457.055L1791.44 -445.7L1806.91 -434.43L1820.43 -423.225L1832.06 -412.105L1842.8 -401.029L1852.56 -390.018L1862.32 -379.027L1871.86 -368.08L1933.67 -369.758L1993.04 -370.855L2050.51 -371.435L2105.33 -371.78L2158.25 -371.93L2208.58 -372.081L2257.22 -372.188L2303.49 -372.468L2348.37 -372.833L2391.2 -373.457L2432.99 -374.188L2473.01 -375.242L2512.31 -376.404L2550.14 -377.909L2587.52 -379.501L2623.54 -381.458L2659.34 -383.522L2693.84 -385.953L2728.23 -388.469L2761.28 -391.437L2794.21 -394.534L2825.74 -398.126L2857.05 -401.868L2886.84 -406.191L2916.37 -410.729L2944.16 -415.912L2971.61 -421.332L2997.12 -427.505L2998.75 -427.913L3022.18 -433.935L3045.09 -441.162L3046.38 -441.613L3067.36 -448.732L3087.28 -457.141L3106.28 -465.938L3122.66 -475.616L3137.7 -485.767L3149.76 -496.865L3159.99 -508.5L3166.61 -521.19L3170.76 -534.503L3170.56 -548.934L3167.08 -564.139L3158.46 -580.506L3145.57 -597.755L3126.68 -616.165L3102.5 -635.5L3101.81 -635.93L3071.48 -655.953L3070.22 -656.685L3034.28 -677.267L3033.1 -677.869L2989.53 -699.591L2987.73 -700.387L2937.8 -722.625L2936.02 -723.335L2878.07 -746.391L2875.69 -747.251L2810.82 -770.629L2808.33 -771.447L2735.3 -795.255L2732.31 -796.158L2651.99 -820.031L2648.79 -820.913L2560.41 -844.85L2556.8 -845.732L2460.9 -869.412L2457.06 -870.293L2449.36 -872.014L2353.21 -893.607L2351.7 -893.93" stroke="#00FF94" stroke-width="0.5" stroke-linecap="round" stroke-linejoin="round"/>
</g>
<g style="mix-blend-mode:overlay">
<path d="M1293.61 993.966L1222.32 984.374L1120.57 865.139L554.333 733.709L151.78 593.331L0 514.637" stroke="#00FF94" stroke-width="0.5" stroke-linecap="round" stroke-linejoin="round"/>
</g>
<g style="mix-blend-mode:overlay">
<path d="M664.653 384.454L619.67 435.319L582.079 493.754L556.89 561.759L545.241 640.798L554.333 733.709L588.42 843.051L659.13 973.083L757.758 993.967" stroke="#00FF94" stroke-width="0.5" stroke-linecap="round" stroke-linejoin="round"/>
</g>
<g style="mix-blend-mode:overlay">
<path d="M3356 -529.835L3307.43 -493.639L3247.79 -454.367L3206.31 -428.601L3183.5 -416.729L3182.56 -416.278L3143.44 -394.341L3115.09 -380.985L3106.45 -377.178L3073.03 -360.166L3043.48 -347.498L3030.71 -342.573L2996.47 -331.045L2994.58 -331.991L2979.22 -325.217L2978.72 -325.002L2973.09 -322.485L2971.29 -319.474L2969.2 -316.399L2947.17 -309.387L2938.64 -307.473L2936.9 -307L2931.42 -305.021L2923.77 -301.989L2920.58 -300.828L2911.54 -296.892L2901.03 -290.311L2872.21 -280.116L2844.8 -271.341L2816.43 -262.308L2814.41 -261.728L2792.51 -255.232L2790.1 -254.501L2762.36 -246.242L2759.61 -245.468L2756.21 -243.64L2736.55 -236.973L2707.08 -229.768L2701.49 -227.338L2678.84 -221.703L2648.66 -215.208L2624.53 -207.809L2593.6 -198.884L2583.56 -195.765L2532.39 -186.281L2508.73 -181.872L2467.74 -175.893L2434.06 -170.967L2402.49 -168.193L2379.58 -165.763L2364.34 -162.02L2307.64 -152.622L2293.09 -151.138L2211.36 -146.557L2195.95 -145.697L2130.78 -141.137L2056.55 -141.309L1998.8 -141.89L1945.6 -144.492L1910.91 -149.976L1891.76 -156.063L1885.79 -162.128L1844.29 -167.978L1803.69 -174.28L1764.03 -181.033L1725.09 -188.13L1686.81 -195.529L1649.11 -203.185L1611.95 -211.057L1575.31 -219.143L1539.12 -227.402L1503.44 -235.811L1468.13 -244.35L1433.33 -253.06L1398.88 -261.857L1364.86 -270.761L1331.09 -279.729L1297.65 -288.762L1264.29 -297.816L1231 -306.849L1197.54 -315.818L1163.77 -324.722L1129.43 -333.432L1094.27 -341.949L1025.4 -317.861L964.237 -290.138L913.622 -258.674L876.891 -223.423L858.128 -184.603L862.47 -142.47L895.525 -97.8432L964.516 -51.7319L1076.17 -5.96472L1239.15 37.1786L1459.08 74.429L1742.86 101.893L2089.84 115.12L2498.71 109.292L2955.72 80.7306L3144.21 59.8256L3356 36.3183" stroke="#00FF94" stroke-width="0.5" stroke-linecap="round" stroke-linejoin="round"/>
</g>
<g style="mix-blend-mode:overlay">
<path d="M3356 -315.56L3302.46 -293.472L3244.95 -271.019L3188.12 -249.856L3131.23 -229.596L3075.33 -210.433L3019.56 -191.937L2964.84 -174.28L2910.33 -157.074L2856.71 -140.384L2803.21 -123.931L2750.32 -107.672L2697.45 -91.4556L2644.69 -75.1532L2591.82 -58.7002L2538.51 -41.8601L2485.06 -24.6974L2430.58 -6.95405L2376.01 11.3055L2319.91 30.3823L2263.95 50.0828L2206.18 70.8158L2148.9 92.3659L2089.84 115.12L2031.96 138.929L1972.66 164.178L1915.51 190.826L1857.78 219.28L1476.44 188.137L1410.53 213.494L1347.75 240.937L1285.72 270.768L967.159 209.644L899.845 236.786L836.098 267.262L593.836 187.599L525.533 216.204L360.815 129.96L264.808 46.9213L221.565 -31.0205L219.072 -102.338L246.948 -166.967L297.24 -224.585L363.974 -275.815L442.164 -320.829L446.183 -322.657L528.606 -360.338L532.668 -361.843L620.207 -394.642L715.311 -424.429L811.941 -450.022L909.366 -471.938L970.125 -467.572L1025.62 -462.131L1075.95 -455.722L1121.9 -448.517L1163.62 -440.624L1201.84 -432.193L1236.82 -423.289L1269.15 -413.998L1299.15 -404.384L1327.31 -394.534L1354.04 -384.49L1379.6 -374.296L1404.49 -363.994L1428.8 -353.628L1453.02 -343.24L1477.13 -332.809L1501.57 -322.421L1526.2 -312.033L1551.41 -301.709L1577.01 -291.45L1603.34 -281.256L1630.09 -271.148L1657.58 -261.125L1685.54 -251.211L1714.17 -241.382L1743.23 -231.682L1772.93 -222.09L1803.02 -212.691L1833.73 -203.465L1864.9 -194.496L1896.69 -185.764L1929.1 -177.42L1962.26 -169.419L1996.3 -161.999L2031.36 -155.117L2067.12 -147.482L2080.92 -145.439L2106.65 -145.611L2124.48 -146.535H2147.35L2151.69 -146.148L2178.39 -147.611L2195.86 -147.482L2208.37 -147.697L2261.99 -152.493L2266.42 -153.848L2274.16 -154.364L2299.35 -156.751L2312.35 -158.45L2331.65 -159.784L2364.73 -161.182L2409.39 -166.214L2433.54 -171.29L2474.72 -179.291L2497.23 -182.71L2530.52 -188.431L2548.87 -192.41L2559.68 -194.453L2589.69 -201.142L2595.96 -204.045L2614.4 -207.831L2616.21 -208.218L2618.51 -208.519L2618.83 -208.433L2649.26 -214.864L2678 -222.369L2685.52 -225.811L2687.63 -226.198L2691.86 -227.209L2695.09 -227.983L2700.42 -228.521L2709.23 -228.564L2739.34 -235.424L2780.39 -246.264L2794.4 -252.157L2825.33 -262.996L2825.83 -263.147L2830.88 -266.137L2840.03 -270.674L2846.22 -270.825L2874.93 -278.632L2899.78 -288.934L2922.99 -299.58L2944.08 -307.559L2945.32 -308.075L2947.84 -309.904L2952.44 -313.28L2969.97 -321.646L2970.04 -321.689L2976.89 -324.378L2979.39 -324.485L2995.59 -331.561L3012.21 -339.734L3016.61 -341.885L3018.96 -343.132L3022.87 -343.734L3030.82 -345.842L3044.83 -353.434L3051.52 -358.058L3065.66 -365.801L3082.08 -373.866L3091.84 -376.984L3101.01 -379.479L3113.46 -387.652L3134.54 -400.986L3145.52 -408.406L3157.58 -414.923L3173.23 -425.978L3184.77 -433.763L3190.77 -439.097L3208.82 -453.915L3221.78 -464.346L3235.88 -475.68L3248.43 -488.606L3253.78 -497.037L3258.32 -501.597L3270.07 -512.479L3279.06 -525.018L3281.51 -527.212L3289.85 -536.094L3296.96 -546.116L3299.63 -549.644L3299.5 -551.536L3300.38 -554.526L3307.08 -565.666L3304.25 -569.882L3302.59 -572.57L3303.39 -574.377L3304.46 -575.043L3307.3 -583.044L3306.27 -588.786L3306.59 -590.227L3313.68 -613.563L3324.43 -644.146L3331.24 -691.591L3332.57 -739.1L3328.55 -786.243L3339.47 -815.708L3329.67 -861.454L3319.2 -893.93" stroke="#00FF94" stroke-width="0.5" stroke-linecap="round" stroke-linejoin="round"/>
</g>
<g style="mix-blend-mode:overlay">
<path d="M3356 -306.484L3302.46 -293.472L3109.12 -252.63L3099.9 -250.673L2915.71 -217.337L2904.83 -215.38L2733.17 -189.184L2720.64 -187.27L2566.58 -168.107L2551.97 -166.3L2415.96 -153.095L2400.51 -151.611L2286.82 -143.847L2269.23 -142.664L2157.99 -138.32L2067.81 -137.868L1997.16 -140.169L1939.73 -140.04L1883.4 -140.685L1828.6 -142.062L1774.63 -144.019L1721.8 -146.514L1669.55 -149.439L1618.14 -152.751L1594.27 -168.43L1587.04 -183.657L1543.65 -189.915L1500.71 -196.389L1458.22 -203.078L1416.09 -209.938L1374.35 -216.993L1332.9 -224.155L1291.78 -231.467L1250.88 -238.865L1210.2 -246.328L1169.6 -253.834L1129.08 -261.319L1088.42 -268.76L1049.45 -240.457L1025.08 -209.078L1019.39 -174.882L1036.77 -138.427L1082.81 -100.532L1162.87 -62.464L1283.64 -25.9663L1450.07 6.63841L1668.09 32.4685L1939.03 48.2117L2263.95 50.0828L2635.79 34.8773L3043.18 -0.308353L3046.27 -0.566429L3356 -41.2795" stroke="#00FF94" stroke-width="0.5" stroke-linecap="round" stroke-linejoin="round"/>
</g>
<g style="mix-blend-mode:overlay">
<path d="M3356 -631.22L3329.76 -589.152L3311.51 -561.623L3298.64 -542.976L3298.53 -539.514L3282.69 -522.222L3272.35 -511.533L3259.43 -501.037L3256.04 -499.639L3247.96 -489.445L3234.76 -476.39L3222.32 -464.024L3210.71 -453.313L3189.43 -439.505L3169.96 -428.558L3166.76 -427.268L3156.55 -420.257L3155.52 -418.6L3151.31 -415.74L3134.09 -406.255L3131.7 -403.094L3112.13 -390.534L3092.52 -378.877L3080.14 -373.608L3065.53 -366.209L3051.8 -358.101L3044.66 -352.982L3029.66 -346.509L3027.62 -346.788L3020.27 -342.401L2996.02 -331.325L2994.48 -331.088L2980.01 -325.238L2979.73 -324.528L2971.89 -320.549L2959.53 -315.259L2952.44 -313.28L2945.8 -311.022L2935.89 -307.064L2934.58 -306.806L2921.4 -300.462L2906.81 -291.988L2902.21 -288.203L2874.42 -278.912L2846.84 -267.814L2825.7 -258.501L2797.43 -250.501L2780.39 -246.264L2738.48 -235.897L2709.12 -229.746L2705.19 -230.822L2686.34 -226.09L2685.97 -225.208L2676.95 -222.972L2669.47 -221.832L2647.31 -215.982L2617.41 -209.143L2588.38 -201.873L2558.29 -195.27L2551.32 -194.776L2546.75 -193.958L2544.94 -193.636L2525.21 -190.431L2500.36 -185.915L2494.24 -184.431L2480.91 -182.001L2473.74 -180.022L2431.52 -173.097L2402.1 -167.268L2365.65 -163.483L2357.12 -163.848L2331.24 -160.88L2330.12 -160.708L2327.95 -160.45L2326.19 -160.278L2298.14 -157.353L2297.09 -157.246L2283.57 -155.848L2272.8 -154.729L2266.25 -153.912L2261.99 -152.493L2211.25 -148.17L2205.75 -149.482L2202.93 -149.718L2195.86 -147.482L2117.31 -143.46L2057.99 -145.094L2040 -146.535L2038.64 -146.557L2035.03 -146.707L2020.16 -147.976L1986.48 -148.88L1972.6 -152.364L1970.88 -155.955L1930.47 -161.569L1891.33 -167.892L1853.16 -174.688L1815.92 -181.957L1779.4 -189.55L1743.55 -197.486L1708.3 -205.68L1673.57 -214.089L1639.42 -222.692L1605.7 -231.467L1572.54 -240.371L1539.8 -249.447L1507.63 -258.63L1475.84 -267.921L1444.61 -277.32L1413.69 -286.805L1383.23 -296.354L1352.95 -305.946L1322.92 -315.56L1292.83 -325.152L1262.66 -334.701L1232.03 -344.164L1200.83 -353.477L1168.69 -362.596L1135.34 -371.457L1100.43 -379.995L1063.51 -388.103L1024.33 -395.738L982.269 -402.771L937.134 -409.094L888.218 -414.557L835.346 -419.074L742.628 -391.803L653.8 -360.252L570.474 -323.84L498.087 -283.622L495.723 -282.31L434.878 -236.736L432.707 -235.102L386.176 -182.13L361.825 -122.985L367.069 -58.0764L411.494 12.338L505.824 86.5806L578.469 69.3319L734.869 140.671L806.976 121.25L878.568 103.743L951.277 88.0861L1175.18 142.478L1246.73 123.702L1317.31 106.217L1388.88 89.8496L1459.08 74.429L1529.77 59.8042L1598.86 45.8676L1668.09 32.4686L1735.73 19.6073L1803.21 7.11168L1869.3 -4.97532L1935.09 -16.8257L1999.83 -28.3965L2064.2 -39.8813L2127.99 -51.2371L2191.41 -62.5929L2254.77 -74.0347L2317.87 -85.6271L2381.36 -97.5205L2444.74 -109.715L2508.92 -122.447L2573.14 -135.696L2638.41 -149.74L2703.79 -164.515L2770.4 -180.387L2823.05 -193.657L2837.07 -197.206L2904.83 -215.38L2972.55 -234.758L3041.07 -255.705L3109.14 -278.051L3177.44 -302.182L3244.73 -327.84L3311.47 -355.348L3356 -375.307" stroke="#00FF94" stroke-width="0.5" stroke-linecap="round" stroke-linejoin="round"/>
</g>
<g style="mix-blend-mode:overlay">
<path d="M1907.41 993.966L1875.52 972.222L1744.86 864.257L1059.64 763.345L545.241 640.798L183.073 510.916L0 412.886" stroke="#00FF94" stroke-width="0.5" stroke-linecap="round" stroke-linejoin="round"/>
</g>
<g style="mix-blend-mode:overlay">
<path d="M3356 -204.798L3327.76 -189.162L3294.53 -170.322L3262.12 -151.245L3230.42 -131.91L3198.98 -111.995L3168.29 -91.5631L3137.29 -70.2065L3107.12 -48.1187L3076.15 -24.805L3046.27 -0.566426L3015.37 25.1991L2986.03 52.0615L2955.72 80.7305L2927.98 110.711L2899.84 142.757L2875.82 176.351L2852.71 212.333L2321.33 229.323L2280.93 264.186L2246.58 301.308L2215.29 341.311L1702.42 317.374L1657.43 355.656L1620.68 397.509L1173.53 339.698L1125.56 380.024L1082.7 425.081L717.482 340.3L664.654 384.454L394.042 286.704L216.3 188.911L113.416 95.721L67.3575 8.91823L64.5205 -69.97L93.4923 -141.116L145.633 -204.347L214.516 -260.437L218.363 -262.803L294.855 -309.688L299.82 -312.119L383.318 -352.982L476.681 -390.663L482.699 -392.706L573.311 -423.526L579.329 -425.268L671.166 -451.915L678 -453.636L769.537 -476.455L867.048 -497.489L963.527 -515.49L1057.94 -530.717L1150.38 -543.579L1240.09 -554.332L1327.22 -563.236L1411.21 -570.548L1492.24 -576.506L1569.85 -581.324L1644.3 -585.173L1715.16 -588.249L1782.69 -590.701L1846.57 -592.701L1907.02 -594.378L1963.83 -595.884L2017.19 -597.303L2066.99 -598.766L2113.33 -600.336L2156.25 -602.121L2195.82 -604.186L2232.14 -606.551L2265.24 -609.304L2295.26 -612.466L2322.26 -616.079L2346.44 -620.122L2367.76 -624.639L2386.48 -629.629L2402.55 -635.091L2416.22 -641.027L2427.36 -647.415L2436.23 -654.276L2520.91 -633.306L2528.39 -640.619L2605.23 -619.821L2673.59 -599.411L2733.36 -579.667L2785.16 -560.741L2828.92 -542.847L2839.88 -550.568L2877.49 -533.75L2908.48 -518.05L2932.86 -503.661L2951.75 -490.434L2965.16 -478.541L2974.44 -467.68L2979.47 -458.023L2981.8 -449.205L2981.09 -441.377L2979.13 -434.107L2975.33 -427.612L2971.61 -421.332L2967.14 -415.59L2963.96 -409.718L2960.97 -404.105L2930.82 -399.072L2898.96 -394.663L2896.26 -389.028L2862.83 -385.114L2829.69 -381.178L2795.37 -377.694L2761.52 -374.145L2726.7 -370.962L2692.42 -367.629L2657.37 -364.575L2622.87 -361.392L2587.69 -358.424L2584.12 -352.014L2549.17 -348.831L2514.66 -345.519L2479.47 -342.401L2444.44 -339.261L2408.44 -336.357L2372.23 -333.497L2334.72 -330.916L2296.55 -328.464L2256.68 -326.292L2215.72 -324.249L2172.71 -322.464L2128.27 -320.743L2120.68 -331.174L2072.86 -329.712L2065.29 -340.272L2013.78 -338.917L2005.8 -349.606L1999.18 -360.209L1941.52 -358.961L1933.67 -369.758L1925.94 -380.597L1918.63 -391.437L1852.56 -390.018L1784.73 -387.63L1714.9 -384.125L1643.98 -379.2L1572.04 -372.64L1500.13 -364.209L1428.8 -353.628L1359.35 -340.702L1292.83 -325.152L1231 -306.85L1175.61 -285.6L1129.08 -261.319L1094.07 -234.069L1073.96 -203.938L1072.54 -171.29L1094.42 -136.685L1151.74 -134.878L1209.08 -133.05L1266.18 -131.265L1323.35 -129.566L1380.46 -127.975L1437.63 -126.555L1494.91 -125.286L1552.27 -124.275L1609.98 -123.501L1667.86 -123.05L1726.36 -122.964L1785.16 -123.265L1844.91 -124.06L1905.18 -125.372L1966.73 -127.394L2029.04 -130.104L2093.04 -133.76L2157.99 -138.32L2224.96 -144.127L2294.21 -152.665L2301.52 -155.676L2330.85 -160.214L2340.91 -162.494L2357.33 -164.236L2363.59 -165.247L2365.46 -165.72L2366.14 -164.644L2381.49 -165.763L2399.84 -168.537L2416.69 -171.978L2430 -174.021L2452.87 -177.205L2462.11 -179.162L2481.84 -182.452L2494.13 -184.495L2500.11 -185.528L2515.43 -187.205L2527.53 -189.098L2548.87 -192.41L2558.05 -195.4L2582.38 -200.819L2588.48 -201.809L2601.25 -204.777L2618.51 -208.519L2625.24 -209.014L2649.22 -214.885L2653.78 -217.057L2663.99 -219.488L2678.11 -222.778L2694.87 -226.8L2701.49 -227.338L2709.23 -228.564L2735.71 -237.446L2756.21 -243.64L2767.09 -245.748L2793.44 -254.05L2805.9 -259.534L2812.93 -261.534L2817.14 -263.427L2822.28 -265.663L2833.97 -267.448L2846.84 -270.352L2871.99 -280.224L2889.03 -287.321L2895.57 -290.977L2911.54 -296.892L2921.62 -300.247L2924.9 -302.204L2936.49 -307.108L2946.18 -310.828L2946.98 -310.42L2955.53 -314.076L2965.59 -318.764L2971.05 -321.044L2979.07 -324.959L2988.09 -327.84L2996.3 -331.131L3006.45 -337.368L3008.98 -338.486L3014.49 -341.433L3017.32 -342.637L3019.34 -342.895L3023.34 -343.756L3029.66 -346.509L3032.75 -348.982L3042.66 -354.38L3046.42 -355.348L3055.64 -358.531L3066.65 -365.091L3080.25 -373.608L3088.57 -378.898L3091.6 -380.64L3092.35 -381.028L3094.87 -382.34L3106.45 -388.706L3110.34 -390.856L3113.91 -392.082L3132.48 -402.513L3135.83 -406.75L3150.7 -416.686L3154.85 -418.063L3171.08 -428.021L3173.87 -432.408L3179.2 -435.957L3187.16 -441.291L3205.21 -454.453L3209.64 -458.948L3214.88 -463.68L3217.5 -466.303L3218.34 -466.583L3219.01 -466.691L3222.21 -469.164L3232.74 -478.476L3234.8 -481.079L3242.71 -486.929L3246.52 -490.09L3255.91 -498.069L3258.64 -501.425L3258.92 -503.962L3260.75 -506.006L3263.15 -508.715L3267.54 -513.619L3267.19 -514.221L3271.64 -518.888L3277.68 -525.62L3281.34 -528.545L3289.05 -536.761L3294.34 -549.493L3294.94 -553.73L3297.26 -553.708L3300.51 -555.235L3302.59 -561.989L3304.01 -570.118L3304.22 -575.129L3303.86 -577.431L3305.51 -583.388L3305.64 -584.076L3306.61 -588.679L3307.04 -589.217L3306.57 -590.227L3306.01 -591.604L3306.4 -603.003L3307.23 -605.153L3313.21 -632.467L3320.99 -661.61L3331.24 -691.591L3343.71 -722.561L3344.24 -769.296L3339.47 -815.708L3351.87 -845.711L3341.19 -890.575L3342.63 -893.93" stroke="#00FF94" stroke-width="0.5" stroke-linecap="round" stroke-linejoin="round"/>
</g>
<g style="mix-blend-mode:overlay">
<path d="M3109.35 -391.545L3098.71 -398.965L3089.62 -406.815L3059.3 -400.879L3028.82 -395.158L2996.37 -390.233L2964 -385.372L2930 -381.2L2896.34 -377.006L2861.35 -373.328L2826.96 -369.543L2791.54 -366.145L2756.86 -362.553L2721.46 -359.241L2686.9 -355.714L2651.78 -352.359L2617.5 -348.767L2582.75 -345.326L2548.7 -341.713L2514.12 -338.25L2479.99 -334.68L2445.15 -331.325L2410.35 -327.948L2374.57 -324.83L2338.38 -321.797L2300.81 -319.087L2262.4 -316.506L2222.19 -314.248L2180.75 -312.119L2137.25 -310.205L2128.27 -320.743L2081.58 -319.109L2072.86 -329.712L2022.7 -328.206L2013.78 -338.917L1959.92 -337.325L1950.39 -348.143L1941.52 -358.962L1882.09 -357.133L1871.86 -368.081L1808.44 -365.564L1796.42 -376.597L1729.13 -373.07L1714.9 -384.125L1700.63 -395.18L1685.54 -406.234L1609.93 -401.159L1533.18 -394.319L1456.22 -385.437L1379.6 -374.296L1304.53 -360.618L1232.03 -344.165L1163.77 -324.722L1101.49 -302.075L1047.52 -276.095L1004.6 -246.759L976.079 -214.068L965.934 -178.366L979.066 -140.019L1020.65 -99.9081L1097.3 -59.1952L1214.82 -19.6866L1380.59 16.3379L1598.86 45.8672L1874.68 65.2881L2206.18 70.8155L2590.72 58.3844L3015.37 25.1988L3356 -17.3208" stroke="#00FF94" stroke-width="0.5" stroke-linecap="round" stroke-linejoin="round"/>
</g>
<g style="mix-blend-mode:overlay">
<path d="M3356 -421.246L3351.89 -419.074L3284.04 -386.34L3213.46 -355.434L3141.33 -326.679L3067.57 -299.838L2993.42 -275.234L2918.54 -252.48L2844.2 -231.833L2769.73 -212.885L2696.48 -195.851L2623.47 -180.259L2551.97 -166.3L2480.89 -153.525L2411.39 -142.083L2342.29 -131.566L2274.63 -122.082L2207.27 -113.307L2141.05 -105.306L2075.01 -97.8218L2009.71 -90.8535L1944.44 -84.2723L1879.53 -78.0137L1814.48 -71.9917L1749.4 -66.1418L1684.1 -60.4424L1618.42 -54.8075L1552.51 -49.2157L1485.92 -43.5593L1419.12 -37.8599L1351.44 -32.01L1283.64 -25.9664L1214.82 -19.6864L1146.02 -13.0192L1076.17 -5.96484L1006.43 1.71323L935.673 10.0149L865.135 19.2631L793.608 29.4789L693.281 -29.6442L623.818 -21.7295L572.967 -82.1216L559.34 -138.922L575.051 -190.969L613.093 -238.199L667.985 -280.31L735.492 -317.603L811.984 -350.208L895.031 -378.511L982.268 -402.771L1072.32 -423.375L1163.62 -440.624L1255.42 -454.883L1346.72 -466.432L1436.98 -475.573L1525.64 -482.606L1612.3 -487.746L1696.66 -491.295L1778.39 -493.488L1806.91 -481.703L1830.81 -470.003L1850.86 -458.41L1867.35 -446.947L1881.17 -435.613L1892.49 -424.429L1902.36 -413.331L1910.72 -402.363L1918.63 -391.437L1982.14 -392.147L2043.61 -392.276L2102.28 -392.039L2158.89 -391.545L2212.73 -390.964L2264.64 -390.319L2313.94 -389.824L2361.61 -389.372L2367.71 -397.975L2414.63 -397.352L2459.21 -397.029L2502.38 -396.878L2543.41 -397.158L2583.35 -397.631L2621.3 -398.556L2658.38 -399.717L2693.65 -401.373L2728.12 -403.288L2760.87 -405.739L2792.92 -408.492L2823.27 -411.804L2852.9 -415.418L2880.82 -419.676L2908.1 -424.235L2933.52 -429.483L2958.26 -435.097L2981.09 -441.377L3003.16 -448.065L3023.23 -455.464L3042.4 -463.249L3059.4 -471.809L3075.37 -480.799L3088.87 -490.563L3101.01 -500.822L3110.34 -511.899L3117.82 -523.534L3121.97 -536.073L3123.67 -549.235L3121.35 -563.387L3115.76 -578.248L3105.33 -594.185L3090.76 -610.896L3070.45 -628.682L3045.09 -647.329L3043.39 -648.361L3013.13 -666.986L3010.72 -668.32L2975.2 -687.461L2972.75 -688.623L2929.98 -708.839L2926.73 -710.216L2878.03 -730.884L2874.72 -732.132L2818.28 -753.617L2814.2 -755.015L2751.29 -776.78L2747.12 -778.092L2676.22 -800.309L2671.38 -801.707L2593.64 -823.967L2588.63 -825.279L2502.97 -847.625L2497.38 -848.958L2404.64 -871.068L2398.88 -872.315L2299.35 -893.93" stroke="#00FF94" stroke-width="0.5" stroke-linecap="round" stroke-linejoin="round"/>
</g>
<g style="mix-blend-mode:overlay">
<path d="M3356 -347.799L3352.58 -346.272L3290.21 -320.227L3226.85 -295.558L3163.6 -272.503L3099.9 -250.673L3036.88 -230.306L2973.71 -210.971L2911.58 -192.862L2849.51 -175.57L2788.49 -159.246L2727.6 -143.503L2667.64 -128.448L2607.7 -113.758L2548.42 -99.4777L2489.04 -85.3475L2429.85 -71.3679L2370.46 -57.3667L2310.74 -43.258L2250.73 -28.9988L2189.84 -14.3955L2128.65 0.487456L2066.15 15.8866L2003.42 31.7158L1939.03 48.2118L1874.68 65.2885L1808.54 83.2039L1742.86 101.894L1675.55 121.616L1609.33 142.413L1541.89 164.544L1476.44 188.137L1175.18 142.478L1105.27 162.888L1034.99 185.083L967.159 209.644L734.869 140.671L664.331 162.759L593.836 187.6L433.653 106.754L338.527 28.0381L295.392 -45.8174L291.738 -113.974L318.109 -175.613L366.833 -230.951L431.761 -279.965L434.835 -281.686L508.554 -323.259L511.735 -324.657L593.385 -361.047L683.932 -393.996L777.725 -422.407L873.667 -446.818L929.956 -442.366L981.645 -436.903L1028.84 -430.494L1072.32 -423.375L1112.25 -415.59L1149.33 -407.288L1183.8 -398.534L1216.19 -389.437L1246.86 -380.038L1276.18 -370.425L1304.53 -360.617L1332.1 -350.702L1359.35 -340.702L1386.3 -330.636L1413.39 -320.593L1440.53 -310.527L1468.1 -300.526L1495.94 -290.569L1524.37 -280.697L1553.19 -270.89L1582.66 -261.19L1612.56 -251.619L1643.07 -242.134L1674.02 -232.8L1705.6 -223.574L1737.58 -214.541L1770.14 -205.68L1803.21 -197.077L1836.91 -188.711L1871.24 -180.689L1906.34 -173.011L1942.31 -165.849L1979.3 -159.203L2017.54 -153.289L2055.56 -146.965L2060.89 -145.912L2070.6 -146.256L2074.45 -145.804L2080.92 -145.438L2088.78 -145.417L2124.78 -145.675L2128.48 -145.783L2141.42 -146.428L2148.6 -146.944L2150.15 -146.858L2175.06 -148.062L2202.5 -149.89L2205.62 -149.525L2229.86 -150.944L2233.3 -151.718L2263.54 -153.095L2294.21 -152.665L2305.19 -153.848L2364.47 -161.956L2381.94 -165.784L2398.62 -168.881L2414.2 -171.828L2429.74 -173.677L2474.72 -179.291L2495.16 -183.893L2500.15 -185.635L2503.44 -186.237L2525.81 -189.958L2557.77 -195.572L2576.13 -198.948L2589.26 -201.357L2623.28 -209.143L2648.02 -215.573L2678.11 -222.305L2685.69 -225.036L2697.84 -227.036L2706.82 -229.918L2715.14 -232.8L2734.29 -238.22L2761.41 -246.758L2769.04 -248.909L2789.67 -254.738L2791.35 -254.501L2824.53 -262.953L2833.05 -265.255L2846.48 -270.674L2872.08 -280.181L2890.52 -287.106L2893.38 -288.031L2897.2 -290.095L2906.81 -291.988L2910.96 -290.956L2925.7 -298.247L2946.7 -308.204L2969.2 -316.399L2974.32 -320.571L2974.72 -323.13L2979.28 -325.044L2994.58 -331.991L2995.34 -331.927L3021.94 -342.121L3029.66 -346.509L3037.27 -352.122L3041.97 -354.939L3044.83 -353.95L3063.32 -359.391L3063.49 -359.456L3064.22 -359.757L3070.02 -363.349L3092.07 -375.199L3101.01 -379.479L3116.04 -386.877L3125.17 -392.448L3135.47 -400.298L3145.5 -408.428L3156.64 -416.278L3172.39 -426.279L3190.87 -438.366L3208.82 -453.915L3222.32 -464.024L3238.09 -474.261L3251.85 -486.714L3257.24 -495.359L3259.43 -501.037L3268.33 -513.705L3271.53 -517.06L3280.09 -526.76L3281.14 -530.158L3287.27 -537.126L3294.34 -549.471L3294.94 -553.73L3294.88 -554.052L3298.01 -560.311L3298.96 -562.505L3302.05 -570.892L3302.29 -571.452L3302.57 -572.613L3303.32 -575.43L3303.86 -577.431L3307.32 -583.324L3326.17 -628.897L3337.73 -675.632L3343.71 -722.561L3356 -749.552" stroke="#00FF94" stroke-width="0.5" stroke-linecap="round" stroke-linejoin="round"/>
</g>
<g style="mix-blend-mode:overlay">
<path d="M3340.05 -893.93L3341.19 -890.575L3329.67 -861.454L3319.4 -832.914L3310.65 -804.933L3303.52 -777.727L3298.31 -751.208L3295.03 -725.572L3293.91 -700.688L3292.94 -677.31L3292.66 -672.17L3294.88 -664.965L3297.13 -657.609L3298.38 -653.609L3301.28 -649.501L3304.96 -625.693L3305.32 -620.531L3305.43 -620.38L3305.66 -617.455L3306.44 -608.917L3306.57 -607.326L3307.66 -605.153L3309.88 -596.938L3308.61 -587.948L3306.76 -577.818L3304.01 -570.118L3302.89 -565.43L3301.6 -560.462L3297.22 -552.375L3294.32 -549.493L3292.62 -549.514L3289.33 -543.557L3287.14 -537.492L3281.14 -530.115L3278.46 -527.9L3277.34 -525.771L3272.22 -518.179L3269.69 -512.931L3257.5 -501.984L3253.78 -497.037L3248.52 -488.563L3235.6 -479.208L3232.44 -478.627L3226.81 -473.659L3221.46 -469.422L3218.81 -466.282L3216.28 -463.486L3208.6 -458.668L3204.89 -454.647L3188.12 -440.516L3172.11 -430.58L3170.56 -430.602L3169.75 -429.032L3165.9 -426.58L3162.37 -425.225L3150.1 -417.138L3149.87 -417.009L3135.38 -406.664L3132.07 -402.836L3109.85 -389.889L3104.24 -387.824L3087.62 -379.027L3079.59 -373.522L3066.88 -364.94L3057.94 -360.918L3048.81 -357.757L3043.07 -354.015L3035.16 -350.961L3020.46 -343.068L2997.81 -330.249L2992.84 -326.292L2970.75 -319.259L2952.29 -313.624L2946.55 -310.613L2941.99 -307.667L2923.64 -299.257L2897.65 -290.461L2895.33 -291.085L2882.11 -286.095L2869.6 -281.514L2853.55 -275.793L2844.37 -271.793L2826.71 -266.029L2817.08 -263.212L2807.58 -260.566L2807 -260.846L2790.6 -254.222L2770.12 -247.554L2763.6 -245.576L2756.64 -243.532L2739.55 -239.532L2734.98 -237.855L2708.3 -229.08L2702.09 -225.768L2681.57 -220.369L2663.81 -217.487L2653.78 -217.057L2650.51 -216.175L2647.74 -215.724L2643.89 -215.079L2623.28 -209.143L2588.48 -201.809L2582.47 -201.163L2557.1 -195.959L2551.41 -194.862L2547.8 -193.184L2526.8 -189.378L2511.88 -186.926L2495.16 -183.893L2489.55 -183.011L2464.77 -177.613L2434.06 -170.967L2403.15 -168.322L2397.12 -169.333L2371.07 -165.741L2365.59 -164.15L2331.41 -159.913L2330.19 -161.031L2299.2 -156.816L2288.47 -154.342L2264.27 -152.772L2257.63 -153.138L2249.2 -152.471L2236.95 -151.568L2216.47 -150.342L2203.51 -149.525L2178.47 -147.374L2151.31 -146.234L2130.18 -143.417L2067.81 -137.868L2006.02 -135.567L1946.05 -134.255L1887.01 -133.653L1829.41 -133.803L1772.46 -134.47L1716.6 -135.674L1661.17 -137.309L1606.52 -139.309L1552.14 -141.632L1498.24 -144.234L1444.55 -147.095L1391.12 -150.17L1337.86 -153.439L1284.71 -156.837L1269.13 -183.356L1272.63 -208.39L1291.78 -231.467L1323.4 -252.286L1364.86 -270.761L1413.69 -286.805L1468.1 -300.526L1526.2 -312.033L1586.85 -321.517L1648.62 -329.195L1710.93 -335.26L1772.59 -339.97L1833.5 -343.541L1892.69 -346.208L1950.39 -348.143L2005.8 -349.606L2059.45 -350.681L2110.58 -351.606L2159.99 -352.402L2206.97 -353.262L2252.45 -354.165L2295.8 -355.262L2337.97 -356.466L2378.35 -357.929L2384.39 -365.672L2391.2 -373.457L2399.18 -381.2L2406.89 -389.2L2450.85 -389.136L2492.71 -389.437L2533.53 -389.91L2572.47 -390.77L2610.62 -391.824L2647.07 -393.308L2682.88 -394.986L2717.09 -397.136L2750.79 -399.502L2782.88 -402.384L2814.5 -405.524L2844.46 -409.223L2873.92 -413.181L2901.69 -417.762L2928.92 -422.665L2954.33 -428.214L2958.26 -435.097L2959.77 -442.839L2959.34 -451.291L2955.27 -460.884L2947.79 -471.422L2935.41 -483.251L2918.22 -496.22L2894.92 -510.544L2865.5 -526.05L2828.92 -542.847L2816.3 -535.642L2773.49 -553.493L2723 -572.334L2664.12 -592.077L2596.93 -612.466L2520.91 -633.306L2511.3 -626.445L2499.27 -620.079L2485 -614.208L2468.17 -608.853L2448.89 -603.992L2426.9 -599.648L2402.25 -595.798L2374.7 -592.464L2344.22 -589.604L2310.63 -587.216L2273.9 -585.216L2233.9 -583.625L2190.57 -582.334L2143.83 -581.324L2093.62 -580.463L2039.93 -579.689L1982.66 -578.893L1921.92 -577.947L1857.55 -576.721L1789.78 -575.086L1718.45 -572.893L1643.81 -569.946L1565.72 -566.075L1484.57 -561.107L1400.17 -554.784L1313.02 -546.934L1222.98 -537.255L1130.72 -525.534L1036.09 -511.447L939.993 -494.714L842.503 -474.949L744.756 -451.829L647.18 -424.859L556.439 -395.308L551.431 -393.674L458.605 -357.671L375.258 -318.377L371.217 -316.485L295.456 -271.642L291.609 -269.341L223.736 -215.939L172.176 -155.504L143.397 -87.9499L145.74 -12.847L189.542 69.1167L288.665 157.253L458.133 248.83L717.482 340.3L774.2 301.394L836.098 267.262L1173.53 339.698L1228.38 303.566L1285.72 270.768L1702.42 317.374L1750.26 282.188L1803.64 249.583L1857.78 219.28L2321.33 229.323L2362.51 196.74L2407.56 165.877L2451.96 136.907L2498.71 109.292L2544.06 83.2899L2590.72 58.3846L2635.79 34.8773L2681.52 12.2303L2725.82 -9.2338L2770.42 -29.9882L2814.03 -49.8393L2857.83 -69.1527L2901.16 -87.8424L2944.74 -106.188L2988.44 -124.211L3032.41 -142.105L3076.99 -159.999L3121.97 -178L3167.92 -196.324L3214.28 -214.993L3261.78 -234.306L3309.6 -254.222L3356 -273.965" stroke="#00FF94" stroke-width="0.5" stroke-linecap="round" stroke-linejoin="round"/>
</g>
<g style="mix-blend-mode:overlay">
<path d="M3356 -347.24L3352.58 -346.272L3190.51 -305.473L3177.44 -302.183L3022.03 -267.363L3006.47 -263.878L2862.51 -235.446L2844.2 -231.833L2736.8 -213.229L2692.87 -205.615L2604.69 -192.475L2556.18 -185.227L2508.51 -176.151L2482.01 -172.107L2427.29 -166.387L2364.47 -161.956L2349.55 -162.472L2331.65 -159.784L2299.35 -156.751L2273.43 -154.708L2265.82 -154.127L2236.95 -151.568L2233.3 -151.719L2206.33 -149.245L2178.8 -147.632L2174.22 -148.127L2159.09 -147.353L2149.54 -146.707L2128.48 -145.783L2124.78 -145.675L2106.64 -145.611L2100.91 -145.976L2091 -145.761L2087.92 -145.89L2078.36 -145.761L2074.32 -145.374L2065.9 -145.331L2013.99 -145.783L1961.76 -147.46L1910.91 -149.977L1861.74 -153.289L1813.62 -157.203L1766.74 -161.698L1759.07 -171.634L1716.77 -177.764L1675.12 -184.216L1634.18 -190.969L1593.75 -197.98L1553.86 -205.228L1514.44 -212.67L1475.43 -220.305L1436.9 -228.112L1398.68 -236.048L1360.9 -244.113L1323.4 -252.286L1286.24 -260.566L1249.25 -268.889L1212.43 -277.256L1175.61 -285.601L1138.71 -293.881L1101.49 -302.075L1063.79 -310.076L1006.21 -283.256L959.379 -252.824L926.71 -218.907L912.289 -181.592L920.865 -141.417L958.412 -99.0262L1030.91 -55.6893L1146.02 -13.0191L1309.79 26.4894L1529.77 59.804L1808.54 83.2037L2148.9 92.3658L2544.06 83.2898L2981.99 52.341L2986.03 52.0614L3356 8.5955" stroke="#00FF94" stroke-width="0.5" stroke-linecap="round" stroke-linejoin="round"/>
</g>
<g style="mix-blend-mode:overlay">
<path d="M3041.8 -355.025L3039.01 -356.638L3024.39 -366.102L3011.88 -374.984L3003.27 -382.77L2968.99 -378.447L2935.09 -374.145L2899.74 -370.381L2864.98 -366.532L2829.16 -363.091L2794.14 -359.456L2758.34 -356.101L2723.46 -352.487L2688.08 -349.068L2653.65 -345.347L2618.85 -341.777L2584.92 -337.949L2550.66 -334.228L2517.02 -330.335L2482.91 -326.593L2449.11 -322.786L2414.57 -319.194L2379.92 -315.646L2344.16 -312.398L2307.84 -309.28L2269.99 -306.505L2231.13 -303.881L2190.4 -301.602L2148.34 -299.429L2137.25 -310.204L2092.22 -308.333L2081.58 -319.108L2033.29 -317.388L2022.7 -328.206L1970.88 -326.421L1959.92 -337.325L1904.42 -335.239L1892.69 -346.207L1882.09 -357.133L1820.54 -354.552L1808.44 -365.564L1743.14 -362.037L1729.13 -373.07L1660.33 -368.209L1591.02 -361.779L1521.54 -353.52L1453.02 -343.239L1386.3 -330.636L1322.92 -315.56L1264.29 -297.816L1212.43 -277.256L1169.6 -253.834L1138.63 -227.617L1122.68 -198.755L1125.64 -167.634L1151.74 -134.878L1206 -101.37L1293.24 -68.4643L1419.12 -37.8596L1587.67 -11.7715L1803.22 7.11172L2066.15 15.8867L2376.01 11.3056L2725.82 -9.23364L3104.62 -47.882L3107.12 -48.1186L3356 -84.3581" stroke="#00FF94" stroke-width="0.5" stroke-linecap="round" stroke-linejoin="round"/>
</g>
<g style="mix-blend-mode:overlay">
<path d="M3356 66.2773L3203.02 82.1496L2927.98 110.711L2451.96 136.907L2031.96 138.928L1675.55 121.615L1388.88 89.8491L1167.21 48.491L1006.43 1.71295L897.244 -47.3663L832.445 -96.166L768.548 -93.9723L704.264 -90.9828L638.948 -87.1761L572.967 -82.1219L505.609 -75.8848L437.199 -67.8626L367.069 -58.0769L295.392 -45.8178L221.565 -31.0209L145.74 -12.8474L67.3573 8.91785L0 30.9627" stroke="#00FF94" stroke-width="0.5" stroke-linecap="round" stroke-linejoin="round"/>
</g>
</g>
</g>
</g>
<g filter="url(#filter0_f_146_109)">
<circle cx="275" cy="1200" r="628" fill="#FC5185"/>
</g>
<g filter="url(#filter1_f_146_109)">
<circle cx="3199" cy="-486" r="628" fill="#00FF94"/>
</g>
</g>
<rect x="1" y="1" width="3354" height="513" rx="54" stroke="#00FF94" stroke-width="2"/>
<defs>
<filter id="filter0_f_146_109" x="-2353" y="-1428" width="5256" height="5256" filterUnits="userSpaceOnUse" color-interpolation-filters="sRGB">
<feFlood flood-opacity="0" result="BackgroundImageFix"/>
<feBlend mode="normal" in="SourceGraphic" in2="BackgroundImageFix" result="shape"/>
<feGaussianBlur stdDeviation="1000" result="effect1_foregroundBlur_146_109"/>
</filter>
<filter id="filter1_f_146_109" x="571" y="-3114" width="5256" height="5256" filterUnits="userSpaceOnUse" color-interpolation-filters="sRGB">
<feFlood flood-opacity="0" result="BackgroundImageFix"/>
<feBlend mode="normal" in="SourceGraphic" in2="BackgroundImageFix" result="shape"/>
<feGaussianBlur stdDeviation="1000" result="effect1_foregroundBlur_146_109"/>
</filter>
<clipPath id="clip0_146_109">
<rect width="3356" height="515" rx="55" fill="white"/>
</clipPath>
</defs>
</svg>
