<svg width="620" height="108" viewBox="0 0 620 108" fill="none" xmlns="http://www.w3.org/2000/svg">
<path d="M152.299 56.7383V48.1309H134.246V42.6465H158.393V77H134.398V56.7383H152.299ZM152.299 62.2988H140.035V71.3633H152.299V62.2988ZM195.031 77V42.6465H170.885V77H176.674V48.1309H188.938V77H195.031ZM234.031 77L218.797 59.252L233.27 42.7227H224.967L213.312 57.2715V25.5078H207.523V77H213.312V61.918H214.455L225.043 77H234.031ZM262.215 56.7383V48.1309H244.162V42.6465H268.309V77H244.314V56.7383H262.215ZM262.215 62.2988H249.951V71.3633H262.215V62.2988ZM298.854 56.7383V48.1309H280.801V42.6465H304.947V77H280.953V56.7383H298.854ZM298.854 62.2988H286.59V71.3633H298.854V62.2988ZM339.072 62.9844V71.5156H357.125V77H332.979V42.6465H356.973V62.9844H339.072ZM339.072 57.3477H351.412V48.2832H339.072V57.3477ZM397.725 77H390.031L382.262 62.9844H380.814L373.045 77H365.732L375.559 59.0234L366.494 42.6465H373.807L380.814 56.7383H382.262L389.27 42.6465H396.887L387.898 59.0234L397.725 77ZM424.689 48.3594H412.35V71.5156H429.793V77H406.256V42.6465H430.402V55.1387H424.689V48.3594ZM467.041 77V42.6465H448.684V25.5078H442.895V77H448.684V48.1309H460.947V77H467.041ZM497.586 56.7383V48.1309H479.533V42.6465H503.68V77H479.686V56.7383H497.586ZM497.586 62.2988H485.322V71.3633H497.586V62.2988ZM540.318 77V42.6465H516.172V77H521.961V48.1309H534.225V77H540.318ZM570.863 77V85.6074H552.811V91.0156H576.957V42.6465H552.963V77H570.863ZM570.863 71.3633H558.6V48.2832H570.863V71.3633ZM595.543 62.9844V71.5156H613.596V77H589.449V42.6465H613.443V62.9844H595.543ZM595.543 57.3477H607.883V48.2832H595.543V57.3477Z" fill="white"/>
<path d="M47.2632 108L2.86914 76.8904L47.2632 0L91.6546 76.8904L47.2632 108ZM14.6563 74.2761L47.2632 97.1301L79.8675 74.2815L47.2632 17.8089L14.6563 74.2761Z" fill="white"/>
<g filter="url(#filter0_d_78_27)">
<path d="M47.1416 40.1233L47.2711 39.5379L47.3979 40.1233C47.6594 41.3462 48.2067 42.4899 48.995 43.4606C49.4925 44.0624 50.0463 44.6153 50.6489 45.1117C51.6185 45.9024 52.7625 46.4508 53.9862 46.7116L54.5717 46.8384L53.9862 46.9652C52.7625 47.226 51.6185 47.7744 50.6489 48.5651C50.0463 49.0615 49.4925 49.6144 48.995 50.2162C48.2067 51.1869 47.6594 52.3306 47.3979 53.5535L47.2711 54.1389L47.1416 53.5535C46.8824 52.3298 46.3348 51.1857 45.5444 50.2162L45.4985 50.1649C44.0795 48.4733 42.1372 47.3028 39.9786 46.8384C42.1412 46.3762 44.0876 45.2056 45.5094 43.5119L45.5552 43.4606C46.3417 42.4901 46.8856 41.346 47.1416 40.1233Z" fill="#00FF94"/>
</g>
<path d="M58.5511 58.7093L58.5672 58.6365L58.5834 58.7093C58.6153 58.8628 58.6838 59.0063 58.7831 59.1275C58.8452 59.2018 58.9138 59.2704 58.9881 59.3326C59.1094 59.4319 59.2528 59.5004 59.4063 59.5322L59.4792 59.5484L59.4063 59.5646C59.2528 59.5964 59.1094 59.6649 58.9881 59.7642C58.9132 59.8257 58.8445 59.8943 58.7831 59.9693C58.6838 60.0905 58.6153 60.234 58.5834 60.3874L58.5672 60.4603L58.5511 60.3874C58.5193 60.234 58.4508 60.0905 58.3514 59.9693C58.1737 59.758 57.9307 59.6118 57.6608 59.5538C57.9307 59.4958 58.1737 59.3496 58.3514 59.1383C58.4523 59.014 58.5209 58.8666 58.5511 58.7093Z" fill="white"/>
<path d="M34.7772 80.9399L34.7934 80.8671L34.8096 80.9399C34.8414 81.0934 34.9099 81.2369 35.0092 81.3581C35.0716 81.4331 35.1412 81.5018 35.217 81.5631C35.3369 81.6629 35.4796 81.7315 35.6324 81.7628L35.7052 81.779L35.6324 81.7952C35.4796 81.8265 35.3369 81.8951 35.217 81.9948C35.1412 82.0562 35.0716 82.1249 35.0092 82.1998C34.9099 82.3211 34.8414 82.4646 34.8096 82.618L34.7934 82.6909L34.7772 82.618C34.7453 82.4646 34.6768 82.3211 34.5775 82.1998C34.4003 81.9879 34.1571 81.8416 33.8868 81.7844C34.1587 81.729 34.404 81.5836 34.5829 81.3716C34.6823 81.2459 34.749 81.0976 34.7772 80.9399Z" fill="white"/>
<path d="M47.7053 91.5184C47.7216 91.5967 47.7569 91.6699 47.8079 91.7315C47.8402 91.7692 47.8754 91.8044 47.9131 91.8367C47.9757 91.8879 48.0497 91.9231 48.1289 91.9392C48.0502 91.9569 47.9765 91.9919 47.9131 92.0418C47.8747 92.0744 47.8395 92.1105 47.8079 92.1497C47.7563 92.211 47.721 92.2843 47.7053 92.3628C47.6897 92.2843 47.6544 92.211 47.6028 92.1497C47.511 92.0412 47.3857 91.9662 47.2467 91.9365C47.3862 91.9081 47.5118 91.8329 47.6028 91.7234C47.6527 91.6641 47.6878 91.5939 47.7053 91.5184Z" fill="white"/>
<path d="M20.7103 73.6097C20.7276 73.6877 20.7627 73.7606 20.8128 73.8229C20.8444 73.862 20.8797 73.8982 20.918 73.9308C20.9814 73.9807 21.0551 74.0157 21.1338 74.0333C21.0546 74.0495 20.9806 74.0847 20.918 74.1358C20.8796 74.1674 20.8444 74.2027 20.8128 74.2411C20.7627 74.3033 20.7276 74.3762 20.7103 74.4542C20.694 74.3758 20.6587 74.3027 20.6077 74.2411C20.5177 74.1318 20.3929 74.0566 20.2543 74.0279C20.3926 73.9983 20.517 73.9233 20.6077 73.8148C20.6576 73.7555 20.6928 73.6852 20.7103 73.6097Z" fill="white"/>
<path d="M61.7481 81.8168C61.7644 81.8951 61.7996 81.9683 61.8506 82.0299C61.8815 82.0689 61.9168 82.1042 61.9558 82.1351C62.0174 82.1862 62.0906 82.2214 62.1689 82.2377C62.0906 82.254 62.0174 82.2892 61.9558 82.3402C61.9168 82.3711 61.8815 82.4064 61.8506 82.4454C61.7996 82.507 61.7644 82.5802 61.7481 82.6585C61.7307 82.5806 61.6956 82.5076 61.6456 82.4454C61.5546 82.3359 61.4289 82.2607 61.2894 82.2323C61.4287 82.2017 61.554 82.1258 61.6456 82.0164C61.6939 81.9581 61.7288 81.89 61.7481 81.8168Z" fill="white"/>
<path d="M71.0936 68.6023C71.1105 68.6805 71.1456 68.7535 71.1961 68.8155C71.2277 68.8546 71.263 68.8908 71.3013 68.9234C71.3647 68.9733 71.4384 69.0083 71.5171 69.0259C71.4379 69.0421 71.3639 69.0773 71.3013 69.1284C71.2636 69.1608 71.2284 69.1959 71.1961 69.2337C71.146 69.2959 71.1109 69.3688 71.0936 69.4468C71.0773 69.3684 71.042 69.2953 70.991 69.2337C70.9006 69.1249 70.776 69.0498 70.6376 69.0205C70.7756 68.9903 70.8999 68.9154 70.991 68.8074C71.0414 68.7484 71.0767 68.678 71.0936 68.6023Z" fill="white"/>
<path d="M47.5328 65.5485C47.541 65.5881 47.5585 65.6251 47.5841 65.6565L47.638 65.7104C47.6689 65.735 47.7049 65.7525 47.7433 65.7617C47.7043 65.7693 47.668 65.7869 47.638 65.8129C47.6187 65.8286 47.6007 65.8458 47.5841 65.8642C47.5591 65.8959 47.5416 65.9328 47.5328 65.9721V65.9937V65.9748C47.5253 65.935 47.5077 65.8979 47.4816 65.8669C47.4355 65.8126 47.3729 65.7747 47.3035 65.759C47.3731 65.7453 47.436 65.7082 47.4816 65.6538C47.5077 65.6238 47.5254 65.5875 47.5328 65.5485Z" fill="white"/>
<path d="M43.6019 57.3602C43.6097 57.3986 43.6264 57.4346 43.6506 57.4654L43.7045 57.5194C43.7362 57.5443 43.773 57.5618 43.8124 57.5706C43.7726 57.5781 43.7355 57.5958 43.7045 57.6219C43.6852 57.6376 43.6672 57.6547 43.6506 57.6732C43.6266 57.7051 43.6099 57.742 43.6019 57.7811C43.5939 57.742 43.5774 57.7051 43.5534 57.6732C43.5073 57.6189 43.4448 57.581 43.3754 57.5653C43.445 57.5516 43.5078 57.5144 43.5534 57.46C43.5768 57.4308 43.5934 57.3967 43.6019 57.3602Z" fill="white"/>
<path d="M57.6392 44.1782L57.6554 44.1054L57.6716 44.1782C57.7035 44.3308 57.772 44.4734 57.8713 44.5937C57.9327 44.6695 58.0013 44.739 58.0763 44.8014C58.1988 44.8987 58.3418 44.9669 58.4944 45.0011L58.5673 45.0172L58.4944 45.0307C58.3418 45.0649 58.1988 45.1331 58.0763 45.2304C58.0013 45.2928 57.9327 45.3623 57.8713 45.4381C57.772 45.5584 57.7035 45.701 57.6716 45.8536L57.6554 45.9264L57.6392 45.8536C57.6074 45.701 57.5389 45.5584 57.4396 45.4381C57.2621 45.227 57.0189 45.0816 56.7489 45.0253C57.0187 44.967 57.2616 44.8209 57.4396 44.6099C57.5413 44.485 57.6099 44.3366 57.6392 44.1782Z" fill="white"/>
<path d="M35.6944 56.1381C35.7132 56.2309 35.7539 56.3178 35.8131 56.3917C35.8513 56.437 35.8937 56.4786 35.9399 56.5158C36.0132 56.5747 36.099 56.6163 36.1908 56.6372C36.0986 56.657 36.0126 56.6986 35.9399 56.7586C35.8937 56.7958 35.8513 56.8373 35.8131 56.8827C35.7534 56.9563 35.7127 57.0433 35.6944 57.1363C35.6762 57.0433 35.6353 56.9563 35.5757 56.8827C35.4685 56.7538 35.3213 56.6645 35.1575 56.6291C35.3215 56.5958 35.4691 56.5072 35.5757 56.3782C35.633 56.3082 35.6737 56.2261 35.6944 56.1381Z" fill="white"/>
<path d="M42.7953 77.4732C42.8162 77.565 42.8577 77.6508 42.9167 77.7241C42.9548 77.7703 42.9974 77.8128 43.0436 77.8509C43.1169 77.9099 43.2027 77.9514 43.2945 77.9723C43.2025 77.9911 43.1164 78.0318 43.0436 78.091C42.9974 78.1292 42.9548 78.1716 42.9167 78.2178C42.8577 78.2912 42.8162 78.377 42.7953 78.4687C42.7767 78.3762 42.735 78.2899 42.6739 78.2178C42.5665 78.0898 42.4193 78.0015 42.2557 77.9669C42.4193 77.9324 42.5665 77.8441 42.6739 77.716C42.7338 77.6463 42.7754 77.5629 42.7953 77.4732Z" fill="white"/>
<path d="M45.6226 28.1204C45.6429 28.2131 45.6845 28.2999 45.744 28.374C45.782 28.4186 45.8235 28.4601 45.8681 28.4981C45.9415 28.5586 46.0286 28.6003 46.1217 28.6195C46.0294 28.641 45.9428 28.6824 45.8681 28.7409C45.8235 28.7788 45.782 28.8203 45.744 28.865C45.685 28.9393 45.6435 29.026 45.6226 29.1186C45.604 29.0252 45.5622 28.938 45.5012 28.865C45.3942 28.7365 45.2468 28.648 45.083 28.6141C45.2465 28.5779 45.3935 28.4887 45.5012 28.3605C45.5607 28.2916 45.6024 28.2091 45.6226 28.1204Z" fill="white"/>
<path d="M96.9855 76.0218C94.2066 85.7639 70.3004 87.4825 43.5911 79.8582C16.8818 72.2339 -2.51613 58.1697 0.265413 48.4141C0.51432 47.553 0.923457 46.7466 1.47137 46.0372C1.21038 46.5007 1.00482 46.9933 0.85894 47.5049C-1.88753 57.1283 17.2704 71.0333 43.6532 78.5632C70.0361 86.0931 93.6455 84.3961 96.3919 74.7726C96.891 73.0298 96.6617 71.1467 95.8172 69.1853C97.15 71.5945 97.5871 73.9093 96.9855 76.0218Z" fill="url(#paint0_linear_78_27)"/>
<path d="M95.1699 73.8822C92.6123 82.8447 69.9849 84.2449 44.6354 77.0091C19.2858 69.7733 0.805142 56.6426 3.35736 47.6801C4.83582 42.5055 12.997 39.8562 24.5116 39.9263C16.2318 40.4794 10.4987 42.9102 9.31167 47.0677C6.97258 55.2693 23.2032 67.0943 45.5688 73.4775C67.9345 79.8608 87.9611 78.3877 90.3029 70.1834C91.5142 65.9423 87.7561 60.7407 80.7496 55.8008C90.9099 61.9089 96.6727 68.6159 95.1699 73.8822Z" fill="url(#paint1_linear_78_27)"/>
<defs>
<filter id="filter0_d_78_27" x="34.9786" y="34.5379" width="24.593" height="24.6011" filterUnits="userSpaceOnUse" color-interpolation-filters="sRGB">
<feFlood flood-opacity="0" result="BackgroundImageFix"/>
<feColorMatrix in="SourceAlpha" type="matrix" values="0 0 0 0 0 0 0 0 0 0 0 0 0 0 0 0 0 0 127 0" result="hardAlpha"/>
<feOffset/>
<feGaussianBlur stdDeviation="2.5"/>
<feComposite in2="hardAlpha" operator="out"/>
<feColorMatrix type="matrix" values="0 0 0 0 0 0 0 0 0 1 0 0 0 0 0.58 0 0 0 1 0"/>
<feBlend mode="normal" in2="BackgroundImageFix" result="effect1_dropShadow_78_27"/>
<feBlend mode="normal" in="SourceGraphic" in2="effect1_dropShadow_78_27" result="shape"/>
</filter>
<linearGradient id="paint0_linear_78_27" x1="38.7025" y1="65.3381" x2="110.34" y2="61.6176" gradientUnits="userSpaceOnUse">
<stop stop-color="#00FF94"/>
<stop offset="1" stop-color="#FF008A"/>
</linearGradient>
<linearGradient id="paint1_linear_78_27" x1="6.8347" y1="46.1338" x2="95.685" y2="64.929" gradientUnits="userSpaceOnUse">
<stop stop-color="#00FF94"/>
<stop offset="1" stop-color="#FF008A"/>
</linearGradient>
</defs>
</svg>
