<svg width="152" height="168" viewBox="0 0 152 168" fill="none" xmlns="http://www.w3.org/2000/svg">
<path d="M73.5206 168L4.46313 119.607L73.5206 0L142.574 119.607L73.5206 168ZM22.7987 115.541L73.5206 151.091L124.238 115.549L73.5206 27.7027L22.7987 115.541Z" fill="white"/>
<g filter="url(#filter0_d_105_21)">
<path d="M73.3313 62.414L73.5328 61.5033L73.73 62.414C74.1368 64.3163 74.9881 66.0953 76.2145 67.6054C76.9883 68.5415 77.8498 69.4015 78.7871 70.1738C80.2955 71.4037 82.075 72.2568 83.9784 72.6625L84.8892 72.8597L83.9784 73.057C82.075 73.4627 80.2955 74.3157 78.7871 75.5456C77.8498 76.3179 76.9883 77.178 76.2145 78.114C74.9881 79.6241 74.1368 81.4031 73.73 83.3054L73.5328 84.2161L73.3313 83.3054C72.9281 81.4019 72.0763 79.6221 70.8468 78.114L70.7755 78.0343C68.5681 75.4029 65.5468 73.5821 62.189 72.8597C65.5529 72.1408 68.5806 70.3198 70.7923 67.6851L70.8636 67.6054C72.0871 66.0957 72.9331 64.316 73.3313 62.414Z" fill="#00FF94"/>
</g>
<path d="M91.0795 91.3256L91.1046 91.2123L91.1298 91.3256C91.1794 91.5644 91.2859 91.7875 91.4404 91.9761C91.5371 92.0917 91.6438 92.1984 91.7593 92.2951C91.9479 92.4496 92.1712 92.5561 92.4099 92.6057L92.5232 92.6308L92.4099 92.656C92.1712 92.7055 91.9479 92.8121 91.7593 92.9666C91.6428 93.0621 91.536 93.169 91.4404 93.2855C91.2859 93.4741 91.1794 93.6973 91.1298 93.936L91.1046 94.0493L91.0795 93.936C91.03 93.6973 90.9235 93.4741 90.769 93.2855C90.4925 92.9568 90.1145 92.7294 89.6946 92.6392C90.1145 92.549 90.4925 92.3216 90.769 91.9929C90.9259 91.7995 91.0326 91.5703 91.0795 91.3256Z" fill="white"/>
<path d="M54.0978 125.907L54.123 125.793L54.1482 125.907C54.1978 126.145 54.3043 126.368 54.4588 126.557C54.5558 126.674 54.6641 126.781 54.782 126.876C54.9685 127.031 55.1904 127.138 55.4282 127.187L55.5415 127.212L55.4282 127.237C55.1904 127.286 54.9685 127.392 54.782 127.547C54.6641 127.643 54.5558 127.75 54.4588 127.866C54.3043 128.055 54.1978 128.278 54.1482 128.517L54.123 128.63L54.0978 128.517C54.0483 128.278 53.9418 128.055 53.7873 127.866C53.5117 127.537 53.1333 127.309 52.7129 127.22C53.1358 127.134 53.5173 126.908 53.7957 126.578C53.9502 126.383 54.054 126.152 54.0978 125.907Z" fill="white"/>
<path d="M74.2083 142.362C74.2337 142.484 74.2885 142.598 74.3678 142.693C74.4181 142.752 74.4728 142.807 74.5315 142.857C74.6288 142.937 74.744 142.991 74.8672 143.017C74.7448 143.044 74.63 143.098 74.5315 143.176C74.4718 143.227 74.417 143.283 74.3678 143.344C74.2876 143.439 74.2326 143.553 74.2083 143.675C74.184 143.553 74.1291 143.439 74.0489 143.344C73.906 143.175 73.7111 143.059 73.4949 143.012C73.7119 142.968 73.9073 142.851 74.0489 142.681C74.1265 142.589 74.1811 142.479 74.2083 142.362Z" fill="white"/>
<path d="M32.2159 114.504C32.2429 114.625 32.2975 114.739 32.3753 114.836C32.4246 114.897 32.4794 114.953 32.5391 115.003C32.6377 115.081 32.7523 115.136 32.8747 115.163C32.7516 115.188 32.6364 115.243 32.5391 115.322C32.4794 115.372 32.4245 115.426 32.3753 115.486C32.2975 115.583 32.2429 115.696 32.2159 115.818C32.1906 115.696 32.1358 115.582 32.0564 115.486C31.9163 115.316 31.7223 115.199 31.5066 115.155C31.7217 115.108 31.9152 114.992 32.0564 114.823C32.134 114.731 32.1887 114.621 32.2159 114.504Z" fill="white"/>
<path d="M96.0525 127.271C96.0779 127.392 96.1327 127.506 96.2121 127.602C96.2602 127.663 96.315 127.718 96.3757 127.766C96.4716 127.845 96.5854 127.9 96.7073 127.925C96.5854 127.951 96.4716 128.005 96.3757 128.085C96.315 128.133 96.2602 128.188 96.2121 128.248C96.1327 128.344 96.0779 128.458 96.0525 128.58C96.0255 128.459 95.971 128.345 95.8931 128.248C95.7515 128.078 95.5561 127.961 95.3391 127.917C95.5558 127.869 95.7507 127.751 95.8931 127.581C95.9682 127.49 96.0226 127.384 96.0525 127.271Z" fill="white"/>
<path d="M110.59 106.715C110.616 106.836 110.671 106.95 110.749 107.046C110.799 107.107 110.853 107.163 110.913 107.214C111.012 107.292 111.126 107.346 111.249 107.374C111.126 107.399 111.01 107.454 110.913 107.533C110.854 107.583 110.8 107.638 110.749 107.697C110.671 107.794 110.617 107.907 110.59 108.028C110.565 107.906 110.51 107.793 110.43 107.697C110.29 107.528 110.096 107.411 109.881 107.365C110.095 107.318 110.289 107.202 110.43 107.034C110.509 106.942 110.564 106.832 110.59 106.715Z" fill="white"/>
<path d="M73.9399 101.964C73.9526 102.026 73.9799 102.084 74.0196 102.132L74.1035 102.216C74.1516 102.254 74.2075 102.282 74.2673 102.296C74.2067 102.308 74.1502 102.335 74.1035 102.376C74.0735 102.4 74.0455 102.427 74.0196 102.455C73.9808 102.505 73.9536 102.562 73.9399 102.623V102.657V102.627C73.9282 102.566 73.9008 102.508 73.8602 102.46C73.7884 102.375 73.6912 102.316 73.5831 102.292C73.6915 102.27 73.7893 102.213 73.8602 102.128C73.9008 102.082 73.9283 102.025 73.9399 101.964Z" fill="white"/>
<path d="M67.8252 89.227C67.8373 89.2867 67.8632 89.3428 67.9009 89.3907L67.9848 89.4746C68.0341 89.5134 68.0914 89.5406 68.1526 89.5543C68.0907 89.566 68.0329 89.5935 67.9848 89.6341C67.9548 89.6585 67.9268 89.6851 67.9009 89.7138C67.8636 89.7635 67.8377 89.8208 67.8252 89.8817C67.8128 89.8208 67.787 89.7635 67.7497 89.7138C67.678 89.6294 67.5808 89.5705 67.4728 89.546C67.5811 89.5247 67.6788 89.4669 67.7497 89.3823C67.7862 89.3368 67.812 89.2837 67.8252 89.227Z" fill="white"/>
<path d="M89.6611 68.7217L89.6863 68.6083L89.7115 68.7217C89.761 68.9591 89.8676 69.1809 90.022 69.3679C90.1175 69.4858 90.2244 69.5941 90.341 69.6911C90.5316 69.8424 90.7539 69.9486 90.9914 70.0017L91.1047 70.0268L90.9914 70.0478C90.7539 70.1009 90.5316 70.2071 90.341 70.3584C90.2244 70.4554 90.1175 70.5636 90.022 70.6815C89.8676 70.8686 89.761 71.0904 89.7115 71.3278L89.6863 71.4411L89.6611 71.3278C89.6115 71.0904 89.505 70.8686 89.3505 70.6815C89.0745 70.3531 88.6961 70.127 88.2761 70.0394C88.6958 69.9486 89.0736 69.7214 89.3505 69.3931C89.5087 69.1989 89.6155 68.968 89.6611 68.7217Z" fill="white"/>
<path d="M55.5247 87.3259C55.5539 87.4702 55.6172 87.6055 55.7093 87.7204C55.7687 87.7909 55.8348 87.8556 55.9066 87.9134C56.0207 88.0052 56.1541 88.0697 56.2968 88.1023C56.1535 88.133 56.0197 88.1978 55.9066 88.2911C55.8348 88.349 55.7687 88.4136 55.7093 88.4842C55.6165 88.5986 55.5531 88.7341 55.5247 88.8787C55.4963 88.7341 55.4328 88.5986 55.34 88.4842C55.1733 88.2837 54.9443 88.1448 54.6895 88.0897C54.9446 88.0379 55.1742 87.9001 55.34 87.6994C55.4292 87.5906 55.4924 87.4628 55.5247 87.3259Z" fill="white"/>
<path d="M66.5706 120.514C66.6031 120.657 66.6676 120.79 66.7594 120.904C66.8187 120.976 66.8848 121.042 66.9567 121.101C67.0708 121.193 67.2043 121.258 67.347 121.29C67.2039 121.32 67.07 121.383 66.9567 121.475C66.8848 121.534 66.8187 121.6 66.7594 121.672C66.6676 121.786 66.6031 121.92 66.5706 122.062C66.5416 121.919 66.4766 121.784 66.3817 121.672C66.2146 121.473 65.9856 121.336 65.7312 121.282C65.9856 121.228 66.2146 121.091 66.3817 120.892C66.4748 120.783 66.5396 120.653 66.5706 120.514Z" fill="white"/>
<path d="M70.9685 43.7428C71.0002 43.8871 71.0649 44.0221 71.1574 44.1373C71.2164 44.2068 71.281 44.2713 71.3505 44.3303C71.4646 44.4245 71.6 44.4894 71.7449 44.5192C71.6012 44.5526 71.4666 44.6171 71.3505 44.708C71.281 44.767 71.2164 44.8316 71.1574 44.9011C71.0656 45.0167 71.001 45.1516 70.9685 45.2956C70.9395 45.1504 70.8746 45.0147 70.7797 44.9011C70.6132 44.7011 70.3839 44.5636 70.1292 44.5108C70.3835 44.4545 70.6122 44.3158 70.7797 44.1163C70.8723 44.0091 70.9371 43.8809 70.9685 43.7428Z" fill="white"/>
<path d="M150.866 118.256C146.544 133.411 109.356 136.084 67.8084 124.224C26.2606 112.364 -3.91398 90.4862 0.412865 75.3108C0.800053 73.9713 1.43649 72.7169 2.2888 71.6134C1.88282 72.3345 1.56306 73.1007 1.33613 73.8965C-2.93616 88.8663 26.865 110.496 67.905 122.209C108.945 133.923 145.671 131.283 149.943 116.313C150.719 113.602 150.363 110.673 149.049 107.622C151.122 111.369 151.802 114.97 150.866 118.256Z" fill="url(#paint0_linear_105_21)"/>
<path d="M148.042 114.928C144.064 128.869 108.865 131.048 69.4328 119.792C30.0002 108.536 1.25247 88.1107 5.22259 74.1691C7.52241 66.1197 20.2175 61.9985 38.1293 62.1076C25.2494 62.968 16.3314 66.7492 14.4848 73.2164C10.8463 85.9745 36.0938 104.369 70.8849 114.298C105.676 124.228 136.828 121.936 140.471 109.174C142.356 102.577 136.509 94.4855 125.611 86.8013C141.415 96.3027 150.38 106.736 148.042 114.928Z" fill="url(#paint1_linear_105_21)"/>
<defs>
<filter id="filter0_d_105_21" x="57.189" y="56.5033" width="32.7002" height="32.7128" filterUnits="userSpaceOnUse" color-interpolation-filters="sRGB">
<feFlood flood-opacity="0" result="BackgroundImageFix"/>
<feColorMatrix in="SourceAlpha" type="matrix" values="0 0 0 0 0 0 0 0 0 0 0 0 0 0 0 0 0 0 127 0" result="hardAlpha"/>
<feOffset/>
<feGaussianBlur stdDeviation="2.5"/>
<feComposite in2="hardAlpha" operator="out"/>
<feColorMatrix type="matrix" values="0 0 0 0 0 0 0 0 0 1 0 0 0 0 0.58 0 0 0 1 0"/>
<feBlend mode="normal" in2="BackgroundImageFix" result="effect1_dropShadow_105_21"/>
<feBlend mode="normal" in="SourceGraphic" in2="effect1_dropShadow_105_21" result="shape"/>
</filter>
<linearGradient id="paint0_linear_105_21" x1="60.2039" y1="101.637" x2="171.64" y2="95.8497" gradientUnits="userSpaceOnUse">
<stop stop-color="#00FF94"/>
<stop offset="1" stop-color="#FF008A"/>
</linearGradient>
<linearGradient id="paint1_linear_105_21" x1="10.6318" y1="71.7637" x2="148.843" y2="101.001" gradientUnits="userSpaceOnUse">
<stop stop-color="#00FF94"/>
<stop offset="1" stop-color="#FF008A"/>
</linearGradient>
</defs>
</svg>
